<?xml version="1.0" encoding="UTF-8" standalone="no"?>
<!DOCTYPE svg PUBLIC "-//W3C//DTD SVG 1.1//EN"
 "http://www.w3.org/Graphics/SVG/1.1/DTD/svg11.dtd">
<!-- Generated by graphviz version 5.0.0 (20220707.1540)
 -->
<!-- Title: dependencies Pages: 1 -->
<svg width="793pt" height="174pt"
 viewBox="0.00 0.00 793.00 173.80" xmlns="http://www.w3.org/2000/svg" xmlns:xlink="http://www.w3.org/1999/xlink">
<g id="graph0" class="graph" transform="scale(1 1) rotate(0) translate(4 169.8)">
<title>dependencies</title>
<polygon fill="white" stroke="transparent" points="-4,4 -4,-169.8 789,-169.8 789,4 -4,4"/>
<text text-anchor="middle" x="392.5" y="-8.2" font-family="sans-serif" font-size="14.00">dependencies</text>
<g id="clust1" class="cluster">
<title>cluster_RePersonalModule</title>
<polygon fill="none" stroke="black" stroke-dasharray="1,5" points="8,-32.8 8,-157.8 777,-157.8 777,-32.8 8,-32.8"/>
</g>
<g id="clust5" class="cluster">
<title>cluster_RePersonalModule_imports</title>
<polygon fill="none" stroke="black" points="341,-40.8 341,-92.8 769,-92.8 769,-40.8 341,-40.8"/>
</g>
<g id="clust2" class="cluster">
<title>cluster_RePersonalModule_declarations</title>
<polygon fill="none" stroke="black" points="16,-40.8 16,-92.8 333,-92.8 333,-40.8 16,-40.8"/>
</g>
<!-- ReAgregarComponent -->
<g id="node1" class="node">
<title>ReAgregarComponent</title>
<polygon fill="#ffffb3" stroke="black" points="325.25,-84.8 182.75,-84.8 182.75,-48.8 325.25,-48.8 325.25,-84.8"/>
<text text-anchor="middle" x="254" y="-62.6" font-family="Times,serif" font-size="14.00">ReAgregarComponent</text>
</g>
<!-- RePersonalModule -->
<g id="node3" class="node">
<title>RePersonalModule</title>
<polygon fill="#8dd3c7" stroke="black" points="459.82,-149.8 456.82,-153.8 435.82,-153.8 432.82,-149.8 336.18,-149.8 336.18,-113.8 459.82,-113.8 459.82,-149.8"/>
<text text-anchor="middle" x="398" y="-127.6" font-family="Times,serif" font-size="14.00">RePersonalModule</text>
</g>
<!-- ReAgregarComponent&#45;&gt;RePersonalModule -->
<g id="edge1" class="edge">
<title>ReAgregarComponent&#45;&gt;RePersonalModule</title>
<path fill="none" stroke="black" d="M325.49,-66.8C335.56,-66.8 342.56,-66.8 342.56,-66.8 342.56,-66.8 342.56,-103.69 342.56,-103.69"/>
<polygon fill="black" stroke="black" points="339.06,-103.69 342.56,-113.69 346.06,-103.69 339.06,-103.69"/>
</g>
<!-- ReGestionComponent -->
<g id="node2" class="node">
<title>ReGestionComponent</title>
<polygon fill="#ffffb3" stroke="black" points="164.44,-84.8 23.56,-84.8 23.56,-48.8 164.44,-48.8 164.44,-84.8"/>
<text text-anchor="middle" x="94" y="-62.6" font-family="Times,serif" font-size="14.00">ReGestionComponent</text>
</g>
<!-- ReGestionComponent&#45;&gt;RePersonalModule -->
<g id="edge2" class="edge">
<title>ReGestionComponent&#45;&gt;RePersonalModule</title>
<path fill="none" stroke="black" d="M94,-84.91C94,-104.14 94,-131.8 94,-131.8 94,-131.8 326.11,-131.8 326.11,-131.8"/>
<polygon fill="black" stroke="black" points="326.11,-135.3 336.11,-131.8 326.11,-128.3 326.11,-135.3"/>
</g>
<!-- PrimeNgModule -->
<g id="node4" class="node">
<title>PrimeNgModule</title>
<polygon fill="#8dd3c7" stroke="black" points="761.1,-84.8 758.1,-88.8 737.1,-88.8 734.1,-84.8 650.9,-84.8 650.9,-48.8 761.1,-48.8 761.1,-84.8"/>
<text text-anchor="middle" x="706" y="-62.6" font-family="Times,serif" font-size="14.00">PrimeNgModule</text>
</g>
<!-- PrimeNgModule&#45;&gt;RePersonalModule -->
<g id="edge3" class="edge">
<title>PrimeNgModule&#45;&gt;RePersonalModule</title>
<path fill="none" stroke="black" d="M706,-84.91C706,-104.14 706,-131.8 706,-131.8 706,-131.8 469.96,-131.8 469.96,-131.8"/>
<polygon fill="black" stroke="black" points="469.96,-128.3 459.96,-131.8 469.96,-135.3 469.96,-128.3"/>
</g>
<!-- RePersonalRoutingModule -->
<g id="node5" class="node">
<title>RePersonalRoutingModule</title>
<polygon fill="#8dd3c7" stroke="black" points="633.44,-84.8 630.44,-88.8 609.44,-88.8 606.44,-84.8 464.56,-84.8 464.56,-48.8 633.44,-48.8 633.44,-84.8"/>
<text text-anchor="middle" x="549" y="-62.6" font-family="Times,serif" font-size="14.00">RePersonalRoutingModule</text>
</g>
<!-- RePersonalRoutingModule&#45;&gt;RePersonalModule -->
<g id="edge4" class="edge">
<title>RePersonalRoutingModule&#45;&gt;RePersonalModule</title>
<path fill="none" stroke="black" d="M464.77,-66.8C457.85,-66.8 453.44,-66.8 453.44,-66.8 453.44,-66.8 453.44,-103.69 453.44,-103.69"/>
<polygon fill="black" stroke="black" points="449.94,-103.69 453.44,-113.69 456.94,-103.69 449.94,-103.69"/>
</g>
<!-- SharedModule -->
<g id="node6" class="node">
<title>SharedModule</title>
<polygon fill="#8dd3c7" stroke="black" points="447.43,-84.8 444.43,-88.8 423.43,-88.8 420.43,-84.8 348.57,-84.8 348.57,-48.8 447.43,-48.8 447.43,-84.8"/>
<text text-anchor="middle" x="398" y="-62.6" font-family="Times,serif" font-size="14.00">SharedModule</text>
</g>
<!-- SharedModule&#45;&gt;RePersonalModule -->
<g id="edge5" class="edge">
<title>SharedModule&#45;&gt;RePersonalModule</title>
<path fill="none" stroke="black" d="M398,-84.91C398,-84.91 398,-103.79 398,-103.79"/>
<polygon fill="black" stroke="black" points="394.5,-103.79 398,-113.79 401.5,-103.79 394.5,-103.79"/>
</g>
</g>
</svg>
