<?xml version="1.0" encoding="UTF-8" standalone="no"?>
<!DOCTYPE svg PUBLIC "-//W3C//DTD SVG 1.1//EN"
 "http://www.w3.org/Graphics/SVG/1.1/DTD/svg11.dtd">
<!-- Generated by graphviz version 5.0.0 (20220707.1540)
 -->
<!-- Title: dependencies Pages: 1 -->
<svg width="686pt" height="174pt"
 viewBox="0.00 0.00 686.00 173.80" xmlns="http://www.w3.org/2000/svg" xmlns:xlink="http://www.w3.org/1999/xlink">
<g id="graph0" class="graph" transform="scale(1 1) rotate(0) translate(4 169.8)">
<title>dependencies</title>
<polygon fill="white" stroke="transparent" points="-4,4 -4,-169.8 682,-169.8 682,4 -4,4"/>
<text text-anchor="middle" x="339" y="-8.2" font-family="sans-serif" font-size="14.00">dependencies</text>
<g id="clust1" class="cluster">
<title>cluster_AsignarActivosModule</title>
<polygon fill="none" stroke="black" stroke-dasharray="1,5" points="8,-32.8 8,-157.8 670,-157.8 670,-32.8 8,-32.8"/>
</g>
<g id="clust2" class="cluster">
<title>cluster_AsignarActivosModule_declarations</title>
<polygon fill="none" stroke="black" points="476,-40.8 476,-92.8 662,-92.8 662,-40.8 476,-40.8"/>
</g>
<g id="clust4" class="cluster">
<title>cluster_AsignarActivosModule_imports</title>
<polygon fill="none" stroke="black" points="16,-40.8 16,-92.8 468,-92.8 468,-40.8 16,-40.8"/>
</g>
<!-- AsignarActivosComponent -->
<g id="node1" class="node">
<title>AsignarActivosComponent</title>
<polygon fill="#ffffb3" stroke="black" points="653.71,-84.8 484.29,-84.8 484.29,-48.8 653.71,-48.8 653.71,-84.8"/>
<text text-anchor="middle" x="569" y="-62.6" font-family="Times,serif" font-size="14.00">AsignarActivosComponent</text>
</g>
<!-- AsignarActivosModule -->
<g id="node2" class="node">
<title>AsignarActivosModule</title>
<polygon fill="#8dd3c7" stroke="black" points="352.93,-149.8 349.93,-153.8 328.93,-153.8 325.93,-149.8 205.07,-149.8 205.07,-113.8 352.93,-113.8 352.93,-149.8"/>
<text text-anchor="middle" x="279" y="-127.6" font-family="Times,serif" font-size="14.00">AsignarActivosModule</text>
</g>
<!-- AsignarActivosComponent&#45;&gt;AsignarActivosModule -->
<g id="edge1" class="edge">
<title>AsignarActivosComponent&#45;&gt;AsignarActivosModule</title>
<path fill="none" stroke="black" d="M569,-84.91C569,-104.14 569,-131.8 569,-131.8 569,-131.8 362.93,-131.8 362.93,-131.8"/>
<polygon fill="black" stroke="black" points="362.93,-128.3 352.93,-131.8 362.93,-135.3 362.93,-128.3"/>
</g>
<!-- AsignarActivosRoutingModule -->
<g id="node3" class="node">
<title>AsignarActivosRoutingModule</title>
<polygon fill="#8dd3c7" stroke="black" points="460.05,-84.8 457.05,-88.8 436.05,-88.8 433.05,-84.8 267.95,-84.8 267.95,-48.8 460.05,-48.8 460.05,-84.8"/>
<text text-anchor="middle" x="364" y="-62.6" font-family="Times,serif" font-size="14.00">AsignarActivosRoutingModule</text>
</g>
<!-- AsignarActivosRoutingModule&#45;&gt;AsignarActivosModule -->
<g id="edge2" class="edge">
<title>AsignarActivosRoutingModule&#45;&gt;AsignarActivosModule</title>
<path fill="none" stroke="black" d="M310.22,-84.91C310.22,-84.91 310.22,-103.79 310.22,-103.79"/>
<polygon fill="black" stroke="black" points="306.72,-103.79 310.22,-113.79 313.72,-103.79 306.72,-103.79"/>
</g>
<!-- PrimeNgModule -->
<g id="node4" class="node">
<title>PrimeNgModule</title>
<polygon fill="#8dd3c7" stroke="black" points="250.1,-84.8 247.1,-88.8 226.1,-88.8 223.1,-84.8 139.9,-84.8 139.9,-48.8 250.1,-48.8 250.1,-84.8"/>
<text text-anchor="middle" x="195" y="-62.6" font-family="Times,serif" font-size="14.00">PrimeNgModule</text>
</g>
<!-- PrimeNgModule&#45;&gt;AsignarActivosModule -->
<g id="edge3" class="edge">
<title>PrimeNgModule&#45;&gt;AsignarActivosModule</title>
<path fill="none" stroke="black" d="M227.67,-84.91C227.67,-84.91 227.67,-103.79 227.67,-103.79"/>
<polygon fill="black" stroke="black" points="224.17,-103.79 227.67,-113.79 231.17,-103.79 224.17,-103.79"/>
</g>
<!-- SharedModule -->
<g id="node5" class="node">
<title>SharedModule</title>
<polygon fill="#8dd3c7" stroke="black" points="122.43,-84.8 119.43,-88.8 98.43,-88.8 95.43,-84.8 23.57,-84.8 23.57,-48.8 122.43,-48.8 122.43,-84.8"/>
<text text-anchor="middle" x="73" y="-62.6" font-family="Times,serif" font-size="14.00">SharedModule</text>
</g>
<!-- SharedModule&#45;&gt;AsignarActivosModule -->
<g id="edge4" class="edge">
<title>SharedModule&#45;&gt;AsignarActivosModule</title>
<path fill="none" stroke="black" d="M73,-84.91C73,-104.14 73,-131.8 73,-131.8 73,-131.8 195.21,-131.8 195.21,-131.8"/>
<polygon fill="black" stroke="black" points="195.21,-135.3 205.21,-131.8 195.21,-128.3 195.21,-135.3"/>
</g>
</g>
</svg>
