<?xml version="1.0" encoding="UTF-8" standalone="no"?>
<!DOCTYPE svg PUBLIC "-//W3C//DTD SVG 1.1//EN"
 "http://www.w3.org/Graphics/SVG/1.1/DTD/svg11.dtd">
<!-- Generated by graphviz version 5.0.0 (20220707.1540)
 -->
<!-- Title: dependencies Pages: 1 -->
<svg width="730pt" height="174pt"
 viewBox="0.00 0.00 730.00 173.80" xmlns="http://www.w3.org/2000/svg" xmlns:xlink="http://www.w3.org/1999/xlink">
<g id="graph0" class="graph" transform="scale(1 1) rotate(0) translate(4 169.8)">
<title>dependencies</title>
<polygon fill="white" stroke="transparent" points="-4,4 -4,-169.8 726,-169.8 726,4 -4,4"/>
<text text-anchor="middle" x="361" y="-8.2" font-family="sans-serif" font-size="14.00">dependencies</text>
<g id="clust1" class="cluster">
<title>cluster_JobsModule</title>
<polygon fill="none" stroke="black" stroke-dasharray="1,5" points="8,-32.8 8,-157.8 714,-157.8 714,-32.8 8,-32.8"/>
</g>
<g id="clust2" class="cluster">
<title>cluster_JobsModule_declarations</title>
<polygon fill="none" stroke="black" points="414,-40.8 414,-92.8 706,-92.8 706,-40.8 414,-40.8"/>
</g>
<g id="clust5" class="cluster">
<title>cluster_JobsModule_imports</title>
<polygon fill="none" stroke="black" points="16,-40.8 16,-92.8 406,-92.8 406,-40.8 16,-40.8"/>
</g>
<!-- HvComponent -->
<g id="node1" class="node">
<title>HvComponent</title>
<polygon fill="#ffffb3" stroke="black" points="698.44,-84.8 599.56,-84.8 599.56,-48.8 698.44,-48.8 698.44,-84.8"/>
<text text-anchor="middle" x="649" y="-62.6" font-family="Times,serif" font-size="14.00">HvComponent</text>
</g>
<!-- JobsModule -->
<g id="node3" class="node">
<title>JobsModule</title>
<polygon fill="#8dd3c7" stroke="black" points="375.45,-149.8 372.45,-153.8 351.45,-153.8 348.45,-149.8 290.55,-149.8 290.55,-113.8 375.45,-113.8 375.45,-149.8"/>
<text text-anchor="middle" x="333" y="-127.6" font-family="Times,serif" font-size="14.00">JobsModule</text>
</g>
<!-- HvComponent&#45;&gt;JobsModule -->
<g id="edge1" class="edge">
<title>HvComponent&#45;&gt;JobsModule</title>
<path fill="none" stroke="black" d="M649,-85.08C649,-106.12 649,-137.8 649,-137.8 649,-137.8 385.29,-137.8 385.29,-137.8"/>
<polygon fill="black" stroke="black" points="385.29,-134.3 375.29,-137.8 385.29,-141.3 385.29,-134.3"/>
</g>
<!-- PublicacionesComponent -->
<g id="node2" class="node">
<title>PublicacionesComponent</title>
<polygon fill="#ffffb3" stroke="black" points="581.59,-84.8 422.41,-84.8 422.41,-48.8 581.59,-48.8 581.59,-84.8"/>
<text text-anchor="middle" x="502" y="-62.6" font-family="Times,serif" font-size="14.00">PublicacionesComponent</text>
</g>
<!-- PublicacionesComponent&#45;&gt;JobsModule -->
<g id="edge2" class="edge">
<title>PublicacionesComponent&#45;&gt;JobsModule</title>
<path fill="none" stroke="black" d="M502,-84.82C502,-102.17 502,-125.8 502,-125.8 502,-125.8 385.65,-125.8 385.65,-125.8"/>
<polygon fill="black" stroke="black" points="385.65,-122.3 375.65,-125.8 385.65,-129.3 385.65,-122.3"/>
</g>
<!-- JobsRoutingModule -->
<g id="node4" class="node">
<title>JobsRoutingModule</title>
<polygon fill="#8dd3c7" stroke="black" points="397.57,-84.8 394.57,-88.8 373.57,-88.8 370.57,-84.8 268.43,-84.8 268.43,-48.8 397.57,-48.8 397.57,-84.8"/>
<text text-anchor="middle" x="333" y="-62.6" font-family="Times,serif" font-size="14.00">JobsRoutingModule</text>
</g>
<!-- JobsRoutingModule&#45;&gt;JobsModule -->
<g id="edge3" class="edge">
<title>JobsRoutingModule&#45;&gt;JobsModule</title>
<path fill="none" stroke="black" d="M333,-84.91C333,-84.91 333,-103.79 333,-103.79"/>
<polygon fill="black" stroke="black" points="329.5,-103.79 333,-113.79 336.5,-103.79 329.5,-103.79"/>
</g>
<!-- PrimeNgModule -->
<g id="node5" class="node">
<title>PrimeNgModule</title>
<polygon fill="#8dd3c7" stroke="black" points="250.1,-84.8 247.1,-88.8 226.1,-88.8 223.1,-84.8 139.9,-84.8 139.9,-48.8 250.1,-48.8 250.1,-84.8"/>
<text text-anchor="middle" x="195" y="-62.6" font-family="Times,serif" font-size="14.00">PrimeNgModule</text>
</g>
<!-- PrimeNgModule&#45;&gt;JobsModule -->
<g id="edge4" class="edge">
<title>PrimeNgModule&#45;&gt;JobsModule</title>
<path fill="none" stroke="black" d="M195,-84.82C195,-102.17 195,-125.8 195,-125.8 195,-125.8 280.47,-125.8 280.47,-125.8"/>
<polygon fill="black" stroke="black" points="280.47,-129.3 290.47,-125.8 280.47,-122.3 280.47,-129.3"/>
</g>
<!-- SharedModule -->
<g id="node6" class="node">
<title>SharedModule</title>
<polygon fill="#8dd3c7" stroke="black" points="122.43,-84.8 119.43,-88.8 98.43,-88.8 95.43,-84.8 23.57,-84.8 23.57,-48.8 122.43,-48.8 122.43,-84.8"/>
<text text-anchor="middle" x="73" y="-62.6" font-family="Times,serif" font-size="14.00">SharedModule</text>
</g>
<!-- SharedModule&#45;&gt;JobsModule -->
<g id="edge5" class="edge">
<title>SharedModule&#45;&gt;JobsModule</title>
<path fill="none" stroke="black" d="M73,-85.08C73,-106.12 73,-137.8 73,-137.8 73,-137.8 280.65,-137.8 280.65,-137.8"/>
<polygon fill="black" stroke="black" points="280.65,-141.3 290.65,-137.8 280.65,-134.3 280.65,-141.3"/>
</g>
</g>
</svg>
