<?xml version="1.0" encoding="UTF-8" standalone="no"?>
<!DOCTYPE svg PUBLIC "-//W3C//DTD SVG 1.1//EN"
 "http://www.w3.org/Graphics/SVG/1.1/DTD/svg11.dtd">
<!-- Generated by graphviz version 5.0.0 (20220707.1540)
 -->
<!-- Title: dependencies Pages: 1 -->
<svg width="390pt" height="174pt"
 viewBox="0.00 0.00 390.00 173.80" xmlns="http://www.w3.org/2000/svg" xmlns:xlink="http://www.w3.org/1999/xlink">
<g id="graph0" class="graph" transform="scale(1 1) rotate(0) translate(4 169.8)">
<title>dependencies</title>
<polygon fill="white" stroke="transparent" points="-4,4 -4,-169.8 386,-169.8 386,4 -4,4"/>
<text text-anchor="middle" x="191" y="-8.2" font-family="sans-serif" font-size="14.00">dependencies</text>
<g id="clust1" class="cluster">
<title>cluster_ValidateQrModule</title>
<polygon fill="none" stroke="black" stroke-dasharray="1,5" points="8,-32.8 8,-157.8 374,-157.8 374,-32.8 8,-32.8"/>
</g>
<g id="clust4" class="cluster">
<title>cluster_ValidateQrModule_imports</title>
<polygon fill="none" stroke="black" points="184,-40.8 184,-92.8 366,-92.8 366,-40.8 184,-40.8"/>
</g>
<g id="clust2" class="cluster">
<title>cluster_ValidateQrModule_declarations</title>
<polygon fill="none" stroke="black" points="16,-40.8 16,-92.8 176,-92.8 176,-40.8 16,-40.8"/>
</g>
<!-- ValidateQrComponent -->
<g id="node1" class="node">
<title>ValidateQrComponent</title>
<polygon fill="#ffffb3" stroke="black" points="167.53,-84.8 24.47,-84.8 24.47,-48.8 167.53,-48.8 167.53,-84.8"/>
<text text-anchor="middle" x="96" y="-62.6" font-family="Times,serif" font-size="14.00">ValidateQrComponent</text>
</g>
<!-- ValidateQrModule -->
<g id="node2" class="node">
<title>ValidateQrModule</title>
<polygon fill="#8dd3c7" stroke="black" points="245.75,-149.8 242.75,-153.8 221.75,-153.8 218.75,-149.8 124.25,-149.8 124.25,-113.8 245.75,-113.8 245.75,-149.8"/>
<text text-anchor="middle" x="185" y="-127.6" font-family="Times,serif" font-size="14.00">ValidateQrModule</text>
</g>
<!-- ValidateQrComponent&#45;&gt;ValidateQrModule -->
<g id="edge1" class="edge">
<title>ValidateQrComponent&#45;&gt;ValidateQrModule</title>
<path fill="none" stroke="black" d="M145.94,-84.91C145.94,-84.91 145.94,-103.79 145.94,-103.79"/>
<polygon fill="black" stroke="black" points="142.44,-103.79 145.94,-113.79 149.44,-103.79 142.44,-103.79"/>
</g>
<!-- ValidateQrRoutingModule -->
<g id="node3" class="node">
<title>ValidateQrRoutingModule</title>
<polygon fill="#8dd3c7" stroke="black" points="358.36,-84.8 355.36,-88.8 334.36,-88.8 331.36,-84.8 191.64,-84.8 191.64,-48.8 358.36,-48.8 358.36,-84.8"/>
<text text-anchor="middle" x="275" y="-62.6" font-family="Times,serif" font-size="14.00">ValidateQrRoutingModule</text>
</g>
<!-- ValidateQrRoutingModule&#45;&gt;ValidateQrModule -->
<g id="edge2" class="edge">
<title>ValidateQrRoutingModule&#45;&gt;ValidateQrModule</title>
<path fill="none" stroke="black" d="M218.72,-84.91C218.72,-84.91 218.72,-103.79 218.72,-103.79"/>
<polygon fill="black" stroke="black" points="215.22,-103.79 218.72,-113.79 222.22,-103.79 215.22,-103.79"/>
</g>
</g>
</svg>
