<?xml version="1.0" encoding="UTF-8" standalone="no"?>
<!DOCTYPE svg PUBLIC "-//W3C//DTD SVG 1.1//EN"
 "http://www.w3.org/Graphics/SVG/1.1/DTD/svg11.dtd">
<!-- Generated by graphviz version 5.0.0 (20220707.1540)
 -->
<!-- Title: dependencies Pages: 1 -->
<svg width="690pt" height="174pt"
 viewBox="0.00 0.00 690.00 173.80" xmlns="http://www.w3.org/2000/svg" xmlns:xlink="http://www.w3.org/1999/xlink">
<g id="graph0" class="graph" transform="scale(1 1) rotate(0) translate(4 169.8)">
<title>dependencies</title>
<polygon fill="white" stroke="transparent" points="-4,4 -4,-169.8 686,-169.8 686,4 -4,4"/>
<text text-anchor="middle" x="341" y="-8.2" font-family="sans-serif" font-size="14.00">dependencies</text>
<g id="clust1" class="cluster">
<title>cluster_ConfiguracionModule</title>
<polygon fill="none" stroke="black" stroke-dasharray="1,5" points="8,-32.8 8,-157.8 674,-157.8 674,-32.8 8,-32.8"/>
</g>
<g id="clust4" class="cluster">
<title>cluster_ConfiguracionModule_imports</title>
<polygon fill="none" stroke="black" points="220,-40.8 220,-92.8 666,-92.8 666,-40.8 220,-40.8"/>
</g>
<g id="clust2" class="cluster">
<title>cluster_ConfiguracionModule_declarations</title>
<polygon fill="none" stroke="black" points="16,-40.8 16,-92.8 212,-92.8 212,-40.8 16,-40.8"/>
</g>
<!-- CrearClasificadorComponent -->
<g id="node1" class="node">
<title>CrearClasificadorComponent</title>
<polygon fill="#ffffb3" stroke="black" points="204.34,-84.8 23.66,-84.8 23.66,-48.8 204.34,-48.8 204.34,-84.8"/>
<text text-anchor="middle" x="114" y="-62.6" font-family="Times,serif" font-size="14.00">CrearClasificadorComponent</text>
</g>
<!-- ConfiguracionModule -->
<g id="node2" class="node">
<title>ConfiguracionModule</title>
<polygon fill="#8dd3c7" stroke="black" points="408.42,-149.8 405.42,-153.8 384.42,-153.8 381.42,-149.8 267.58,-149.8 267.58,-113.8 408.42,-113.8 408.42,-149.8"/>
<text text-anchor="middle" x="338" y="-127.6" font-family="Times,serif" font-size="14.00">ConfiguracionModule</text>
</g>
<!-- CrearClasificadorComponent&#45;&gt;ConfiguracionModule -->
<g id="edge1" class="edge">
<title>CrearClasificadorComponent&#45;&gt;ConfiguracionModule</title>
<path fill="none" stroke="black" d="M114,-84.91C114,-104.14 114,-131.8 114,-131.8 114,-131.8 257.74,-131.8 257.74,-131.8"/>
<polygon fill="black" stroke="black" points="257.74,-135.3 267.74,-131.8 257.74,-128.3 257.74,-135.3"/>
</g>
<!-- ConfiguracionRoutingModule -->
<g id="node3" class="node">
<title>ConfiguracionRoutingModule</title>
<polygon fill="#8dd3c7" stroke="black" points="657.54,-84.8 654.54,-88.8 633.54,-88.8 630.54,-84.8 472.46,-84.8 472.46,-48.8 657.54,-48.8 657.54,-84.8"/>
<text text-anchor="middle" x="565" y="-62.6" font-family="Times,serif" font-size="14.00">ConfiguracionRoutingModule</text>
</g>
<!-- ConfiguracionRoutingModule&#45;&gt;ConfiguracionModule -->
<g id="edge2" class="edge">
<title>ConfiguracionRoutingModule&#45;&gt;ConfiguracionModule</title>
<path fill="none" stroke="black" d="M565,-84.91C565,-104.14 565,-131.8 565,-131.8 565,-131.8 418.27,-131.8 418.27,-131.8"/>
<polygon fill="black" stroke="black" points="418.27,-128.3 408.27,-131.8 418.27,-135.3 418.27,-128.3"/>
</g>
<!-- PrimeNgModule -->
<g id="node4" class="node">
<title>PrimeNgModule</title>
<polygon fill="#8dd3c7" stroke="black" points="454.1,-84.8 451.1,-88.8 430.1,-88.8 427.1,-84.8 343.9,-84.8 343.9,-48.8 454.1,-48.8 454.1,-84.8"/>
<text text-anchor="middle" x="399" y="-62.6" font-family="Times,serif" font-size="14.00">PrimeNgModule</text>
</g>
<!-- PrimeNgModule&#45;&gt;ConfiguracionModule -->
<g id="edge3" class="edge">
<title>PrimeNgModule&#45;&gt;ConfiguracionModule</title>
<path fill="none" stroke="black" d="M376.08,-84.91C376.08,-84.91 376.08,-103.79 376.08,-103.79"/>
<polygon fill="black" stroke="black" points="372.58,-103.79 376.08,-113.79 379.58,-103.79 372.58,-103.79"/>
</g>
<!-- SharedModule -->
<g id="node5" class="node">
<title>SharedModule</title>
<polygon fill="#8dd3c7" stroke="black" points="326.43,-84.8 323.43,-88.8 302.43,-88.8 299.43,-84.8 227.57,-84.8 227.57,-48.8 326.43,-48.8 326.43,-84.8"/>
<text text-anchor="middle" x="277" y="-62.6" font-family="Times,serif" font-size="14.00">SharedModule</text>
</g>
<!-- SharedModule&#45;&gt;ConfiguracionModule -->
<g id="edge4" class="edge">
<title>SharedModule&#45;&gt;ConfiguracionModule</title>
<path fill="none" stroke="black" d="M297,-84.91C297,-84.91 297,-103.79 297,-103.79"/>
<polygon fill="black" stroke="black" points="293.5,-103.79 297,-113.79 300.5,-103.79 293.5,-103.79"/>
</g>
</g>
</svg>
