<?xml version="1.0" encoding="UTF-8" standalone="no"?>
<!DOCTYPE svg PUBLIC "-//W3C//DTD SVG 1.1//EN"
 "http://www.w3.org/Graphics/SVG/1.1/DTD/svg11.dtd">
<!-- Generated by graphviz version 5.0.0 (20220707.1540)
 -->
<!-- Title: dependencies Pages: 1 -->
<svg width="1022pt" height="174pt"
 viewBox="0.00 0.00 1022.00 173.80" xmlns="http://www.w3.org/2000/svg" xmlns:xlink="http://www.w3.org/1999/xlink">
<g id="graph0" class="graph" transform="scale(1 1) rotate(0) translate(4 169.8)">
<title>dependencies</title>
<polygon fill="white" stroke="transparent" points="-4,4 -4,-169.8 1018,-169.8 1018,4 -4,4"/>
<text text-anchor="middle" x="507" y="-8.2" font-family="sans-serif" font-size="14.00">dependencies</text>
<g id="clust1" class="cluster">
<title>cluster_MenuModule</title>
<polygon fill="none" stroke="black" stroke-dasharray="1,5" points="8,-32.8 8,-157.8 1006,-157.8 1006,-32.8 8,-32.8"/>
</g>
<g id="clust2" class="cluster">
<title>cluster_MenuModule_declarations</title>
<polygon fill="none" stroke="black" points="422,-40.8 422,-92.8 998,-92.8 998,-40.8 422,-40.8"/>
</g>
<g id="clust7" class="cluster">
<title>cluster_MenuModule_imports</title>
<polygon fill="none" stroke="black" points="16,-40.8 16,-92.8 414,-92.8 414,-40.8 16,-40.8"/>
</g>
<!-- MenuComponent -->
<g id="node1" class="node">
<title>MenuComponent</title>
<polygon fill="#ffffb3" stroke="black" points="989.99,-84.8 876.01,-84.8 876.01,-48.8 989.99,-48.8 989.99,-84.8"/>
<text text-anchor="middle" x="933" y="-62.6" font-family="Times,serif" font-size="14.00">MenuComponent</text>
</g>
<!-- MenuModule -->
<g id="node5" class="node">
<title>MenuModule</title>
<polygon fill="#8dd3c7" stroke="black" points="543.21,-149.8 540.21,-153.8 519.21,-153.8 516.21,-149.8 450.79,-149.8 450.79,-113.8 543.21,-113.8 543.21,-149.8"/>
<text text-anchor="middle" x="497" y="-127.6" font-family="Times,serif" font-size="14.00">MenuModule</text>
</g>
<!-- MenuComponent&#45;&gt;MenuModule -->
<g id="edge1" class="edge">
<title>MenuComponent&#45;&gt;MenuModule</title>
<path fill="none" stroke="black" d="M933,-85.09C933,-107.01 933,-140.8 933,-140.8 933,-140.8 553.25,-140.8 553.25,-140.8"/>
<polygon fill="black" stroke="black" points="553.25,-137.3 543.25,-140.8 553.25,-144.3 553.25,-137.3"/>
</g>
<!-- MenuPerfilComponent -->
<g id="node2" class="node">
<title>MenuPerfilComponent</title>
<polygon fill="#ffffb3" stroke="black" points="857.6,-84.8 712.4,-84.8 712.4,-48.8 857.6,-48.8 857.6,-84.8"/>
<text text-anchor="middle" x="785" y="-62.6" font-family="Times,serif" font-size="14.00">MenuPerfilComponent</text>
</g>
<!-- MenuPerfilComponent&#45;&gt;MenuModule -->
<g id="edge2" class="edge">
<title>MenuPerfilComponent&#45;&gt;MenuModule</title>
<path fill="none" stroke="black" d="M785,-84.91C785,-104.14 785,-131.8 785,-131.8 785,-131.8 553.27,-131.8 553.27,-131.8"/>
<polygon fill="black" stroke="black" points="553.27,-128.3 543.27,-131.8 553.27,-135.3 553.27,-128.3"/>
</g>
<!-- PerfilComponent -->
<g id="node3" class="node">
<title>PerfilComponent</title>
<polygon fill="#ffffb3" stroke="black" points="694.44,-84.8 581.56,-84.8 581.56,-48.8 694.44,-48.8 694.44,-84.8"/>
<text text-anchor="middle" x="638" y="-62.6" font-family="Times,serif" font-size="14.00">PerfilComponent</text>
</g>
<!-- PerfilComponent&#45;&gt;MenuModule -->
<g id="edge3" class="edge">
<title>PerfilComponent&#45;&gt;MenuModule</title>
<path fill="none" stroke="black" d="M638,-84.83C638,-101.2 638,-122.8 638,-122.8 638,-122.8 553.17,-122.8 553.17,-122.8"/>
<polygon fill="black" stroke="black" points="553.17,-119.3 543.17,-122.8 553.17,-126.3 553.17,-119.3"/>
</g>
<!-- SubmenuComponent -->
<g id="node4" class="node">
<title>SubmenuComponent</title>
<polygon fill="#ffffb3" stroke="black" points="564.22,-84.8 429.78,-84.8 429.78,-48.8 564.22,-48.8 564.22,-84.8"/>
<text text-anchor="middle" x="497" y="-62.6" font-family="Times,serif" font-size="14.00">SubmenuComponent</text>
</g>
<!-- SubmenuComponent&#45;&gt;MenuModule -->
<g id="edge4" class="edge">
<title>SubmenuComponent&#45;&gt;MenuModule</title>
<path fill="none" stroke="black" d="M497,-84.91C497,-84.91 497,-103.79 497,-103.79"/>
<polygon fill="black" stroke="black" points="493.5,-103.79 497,-113.79 500.5,-103.79 493.5,-103.79"/>
</g>
<!-- MenuRoutingModule -->
<g id="node6" class="node">
<title>MenuRoutingModule</title>
<polygon fill="#8dd3c7" stroke="black" points="405.83,-84.8 402.83,-88.8 381.83,-88.8 378.83,-84.8 268.17,-84.8 268.17,-48.8 405.83,-48.8 405.83,-84.8"/>
<text text-anchor="middle" x="337" y="-62.6" font-family="Times,serif" font-size="14.00">MenuRoutingModule</text>
</g>
<!-- MenuRoutingModule&#45;&gt;MenuModule -->
<g id="edge5" class="edge">
<title>MenuRoutingModule&#45;&gt;MenuModule</title>
<path fill="none" stroke="black" d="M337,-84.83C337,-101.2 337,-122.8 337,-122.8 337,-122.8 440.72,-122.8 440.72,-122.8"/>
<polygon fill="black" stroke="black" points="440.72,-126.3 450.72,-122.8 440.72,-119.3 440.72,-126.3"/>
</g>
<!-- PrimeNgModule -->
<g id="node7" class="node">
<title>PrimeNgModule</title>
<polygon fill="#8dd3c7" stroke="black" points="250.1,-84.8 247.1,-88.8 226.1,-88.8 223.1,-84.8 139.9,-84.8 139.9,-48.8 250.1,-48.8 250.1,-84.8"/>
<text text-anchor="middle" x="195" y="-62.6" font-family="Times,serif" font-size="14.00">PrimeNgModule</text>
</g>
<!-- PrimeNgModule&#45;&gt;MenuModule -->
<g id="edge6" class="edge">
<title>PrimeNgModule&#45;&gt;MenuModule</title>
<path fill="none" stroke="black" d="M195,-84.91C195,-104.14 195,-131.8 195,-131.8 195,-131.8 440.8,-131.8 440.8,-131.8"/>
<polygon fill="black" stroke="black" points="440.8,-135.3 450.8,-131.8 440.8,-128.3 440.8,-135.3"/>
</g>
<!-- SharedModule -->
<g id="node8" class="node">
<title>SharedModule</title>
<polygon fill="#8dd3c7" stroke="black" points="122.43,-84.8 119.43,-88.8 98.43,-88.8 95.43,-84.8 23.57,-84.8 23.57,-48.8 122.43,-48.8 122.43,-84.8"/>
<text text-anchor="middle" x="73" y="-62.6" font-family="Times,serif" font-size="14.00">SharedModule</text>
</g>
<!-- SharedModule&#45;&gt;MenuModule -->
<g id="edge7" class="edge">
<title>SharedModule&#45;&gt;MenuModule</title>
<path fill="none" stroke="black" d="M73,-85.09C73,-107.01 73,-140.8 73,-140.8 73,-140.8 440.82,-140.8 440.82,-140.8"/>
<polygon fill="black" stroke="black" points="440.82,-144.3 450.82,-140.8 440.82,-137.3 440.82,-144.3"/>
</g>
</g>
</svg>
