<?xml version="1.0" encoding="UTF-8" standalone="no"?>
<!DOCTYPE svg PUBLIC "-//W3C//DTD SVG 1.1//EN"
 "http://www.w3.org/Graphics/SVG/1.1/DTD/svg11.dtd">
<!-- Generated by graphviz version 5.0.0 (20220707.1540)
 -->
<!-- Title: dependencies Pages: 1 -->
<svg width="1464pt" height="174pt"
 viewBox="0.00 0.00 1464.00 173.80" xmlns="http://www.w3.org/2000/svg" xmlns:xlink="http://www.w3.org/1999/xlink">
<g id="graph0" class="graph" transform="scale(1 1) rotate(0) translate(4 169.8)">
<title>dependencies</title>
<polygon fill="white" stroke="transparent" points="-4,4 -4,-169.8 1460,-169.8 1460,4 -4,4"/>
<text text-anchor="middle" x="728" y="-8.2" font-family="sans-serif" font-size="14.00">dependencies</text>
<g id="clust1" class="cluster">
<title>cluster_ProveedoresModule</title>
<polygon fill="none" stroke="black" stroke-dasharray="1,5" points="8,-32.8 8,-157.8 1448,-157.8 1448,-32.8 8,-32.8"/>
</g>
<g id="clust2" class="cluster">
<title>cluster_ProveedoresModule_declarations</title>
<polygon fill="none" stroke="black" points="458,-40.8 458,-92.8 1440,-92.8 1440,-40.8 458,-40.8"/>
</g>
<g id="clust8" class="cluster">
<title>cluster_ProveedoresModule_imports</title>
<polygon fill="none" stroke="black" points="16,-40.8 16,-92.8 450,-92.8 450,-40.8 16,-40.8"/>
</g>
<!-- EditarContactoComponent -->
<g id="node1" class="node">
<title>EditarContactoComponent</title>
<polygon fill="#ffffb3" stroke="black" points="1432.08,-84.8 1265.92,-84.8 1265.92,-48.8 1432.08,-48.8 1432.08,-84.8"/>
<text text-anchor="middle" x="1349" y="-62.6" font-family="Times,serif" font-size="14.00">EditarContactoComponent</text>
</g>
<!-- ProveedoresModule -->
<g id="node6" class="node">
<title>ProveedoresModule</title>
<polygon fill="#8dd3c7" stroke="black" points="727.25,-149.8 724.25,-153.8 703.25,-153.8 700.25,-149.8 598.75,-149.8 598.75,-113.8 727.25,-113.8 727.25,-149.8"/>
<text text-anchor="middle" x="663" y="-127.6" font-family="Times,serif" font-size="14.00">ProveedoresModule</text>
</g>
<!-- EditarContactoComponent&#45;&gt;ProveedoresModule -->
<g id="edge1" class="edge">
<title>EditarContactoComponent&#45;&gt;ProveedoresModule</title>
<path fill="none" stroke="black" d="M1349,-85.09C1349,-107.01 1349,-140.8 1349,-140.8 1349,-140.8 737.54,-140.8 737.54,-140.8"/>
<polygon fill="black" stroke="black" points="737.54,-137.3 727.54,-140.8 737.54,-144.3 737.54,-137.3"/>
</g>
<!-- ListarProveedorComponent -->
<g id="node2" class="node">
<title>ListarProveedorComponent</title>
<polygon fill="#ffffb3" stroke="black" points="1247.53,-84.8 1076.47,-84.8 1076.47,-48.8 1247.53,-48.8 1247.53,-84.8"/>
<text text-anchor="middle" x="1162" y="-62.6" font-family="Times,serif" font-size="14.00">ListarProveedorComponent</text>
</g>
<!-- ListarProveedorComponent&#45;&gt;ProveedoresModule -->
<g id="edge2" class="edge">
<title>ListarProveedorComponent&#45;&gt;ProveedoresModule</title>
<path fill="none" stroke="black" d="M1162,-84.91C1162,-104.14 1162,-131.8 1162,-131.8 1162,-131.8 737.47,-131.8 737.47,-131.8"/>
<polygon fill="black" stroke="black" points="737.47,-128.3 727.47,-131.8 737.47,-135.3 737.47,-128.3"/>
</g>
<!-- RegistrarContactoComponent -->
<g id="node3" class="node">
<title>RegistrarContactoComponent</title>
<polygon fill="#ffffb3" stroke="black" points="1058.69,-84.8 875.31,-84.8 875.31,-48.8 1058.69,-48.8 1058.69,-84.8"/>
<text text-anchor="middle" x="967" y="-62.6" font-family="Times,serif" font-size="14.00">RegistrarContactoComponent</text>
</g>
<!-- RegistrarContactoComponent&#45;&gt;ProveedoresModule -->
<g id="edge3" class="edge">
<title>RegistrarContactoComponent&#45;&gt;ProveedoresModule</title>
<path fill="none" stroke="black" d="M967,-84.83C967,-101.2 967,-122.8 967,-122.8 967,-122.8 737.47,-122.8 737.47,-122.8"/>
<polygon fill="black" stroke="black" points="737.47,-119.3 727.47,-122.8 737.47,-126.3 737.47,-119.3"/>
</g>
<!-- RegistrarProductoComponent -->
<g id="node4" class="node">
<title>RegistrarProductoComponent</title>
<polygon fill="#ffffb3" stroke="black" points="857.7,-84.8 674.3,-84.8 674.3,-48.8 857.7,-48.8 857.7,-84.8"/>
<text text-anchor="middle" x="766" y="-62.6" font-family="Times,serif" font-size="14.00">RegistrarProductoComponent</text>
</g>
<!-- RegistrarProductoComponent&#45;&gt;ProveedoresModule -->
<g id="edge4" class="edge">
<title>RegistrarProductoComponent&#45;&gt;ProveedoresModule</title>
<path fill="none" stroke="black" d="M700.89,-84.91C700.89,-84.91 700.89,-103.79 700.89,-103.79"/>
<polygon fill="black" stroke="black" points="697.39,-103.79 700.89,-113.79 704.39,-103.79 697.39,-103.79"/>
</g>
<!-- RegistrarProveedorComponent -->
<g id="node5" class="node">
<title>RegistrarProveedorComponent</title>
<polygon fill="#ffffb3" stroke="black" points="656.19,-84.8 465.81,-84.8 465.81,-48.8 656.19,-48.8 656.19,-84.8"/>
<text text-anchor="middle" x="561" y="-62.6" font-family="Times,serif" font-size="14.00">RegistrarProveedorComponent</text>
</g>
<!-- RegistrarProveedorComponent&#45;&gt;ProveedoresModule -->
<g id="edge5" class="edge">
<title>RegistrarProveedorComponent&#45;&gt;ProveedoresModule</title>
<path fill="none" stroke="black" d="M627.36,-84.91C627.36,-84.91 627.36,-103.79 627.36,-103.79"/>
<polygon fill="black" stroke="black" points="623.86,-103.79 627.36,-113.79 630.86,-103.79 623.86,-103.79"/>
</g>
<!-- PrimeNgModule -->
<g id="node7" class="node">
<title>PrimeNgModule</title>
<polygon fill="#8dd3c7" stroke="black" points="442.1,-84.8 439.1,-88.8 418.1,-88.8 415.1,-84.8 331.9,-84.8 331.9,-48.8 442.1,-48.8 442.1,-84.8"/>
<text text-anchor="middle" x="387" y="-62.6" font-family="Times,serif" font-size="14.00">PrimeNgModule</text>
</g>
<!-- PrimeNgModule&#45;&gt;ProveedoresModule -->
<g id="edge6" class="edge">
<title>PrimeNgModule&#45;&gt;ProveedoresModule</title>
<path fill="none" stroke="black" d="M387,-84.83C387,-101.2 387,-122.8 387,-122.8 387,-122.8 588.64,-122.8 588.64,-122.8"/>
<polygon fill="black" stroke="black" points="588.64,-126.3 598.64,-122.8 588.64,-119.3 588.64,-126.3"/>
</g>
<!-- ProveedoresRoutingModule -->
<g id="node8" class="node">
<title>ProveedoresRoutingModule</title>
<polygon fill="#8dd3c7" stroke="black" points="313.87,-84.8 310.87,-88.8 289.87,-88.8 286.87,-84.8 140.13,-84.8 140.13,-48.8 313.87,-48.8 313.87,-84.8"/>
<text text-anchor="middle" x="227" y="-62.6" font-family="Times,serif" font-size="14.00">ProveedoresRoutingModule</text>
</g>
<!-- ProveedoresRoutingModule&#45;&gt;ProveedoresModule -->
<g id="edge7" class="edge">
<title>ProveedoresRoutingModule&#45;&gt;ProveedoresModule</title>
<path fill="none" stroke="black" d="M227,-84.91C227,-104.14 227,-131.8 227,-131.8 227,-131.8 588.67,-131.8 588.67,-131.8"/>
<polygon fill="black" stroke="black" points="588.67,-135.3 598.67,-131.8 588.67,-128.3 588.67,-135.3"/>
</g>
<!-- SharedModule -->
<g id="node9" class="node">
<title>SharedModule</title>
<polygon fill="#8dd3c7" stroke="black" points="122.43,-84.8 119.43,-88.8 98.43,-88.8 95.43,-84.8 23.57,-84.8 23.57,-48.8 122.43,-48.8 122.43,-84.8"/>
<text text-anchor="middle" x="73" y="-62.6" font-family="Times,serif" font-size="14.00">SharedModule</text>
</g>
<!-- SharedModule&#45;&gt;ProveedoresModule -->
<g id="edge8" class="edge">
<title>SharedModule&#45;&gt;ProveedoresModule</title>
<path fill="none" stroke="black" d="M73,-85.09C73,-107.01 73,-140.8 73,-140.8 73,-140.8 588.74,-140.8 588.74,-140.8"/>
<polygon fill="black" stroke="black" points="588.74,-144.3 598.74,-140.8 588.74,-137.3 588.74,-144.3"/>
</g>
</g>
</svg>
