<?xml version="1.0" encoding="UTF-8" standalone="no"?>
<!DOCTYPE svg PUBLIC "-//W3C//DTD SVG 1.1//EN"
 "http://www.w3.org/Graphics/SVG/1.1/DTD/svg11.dtd">
<!-- Generated by graphviz version 5.0.0 (20220707.1540)
 -->
<!-- Title: dependencies Pages: 1 -->
<svg width="540pt" height="174pt"
 viewBox="0.00 0.00 540.00 173.80" xmlns="http://www.w3.org/2000/svg" xmlns:xlink="http://www.w3.org/1999/xlink">
<g id="graph0" class="graph" transform="scale(1 1) rotate(0) translate(4 169.8)">
<title>dependencies</title>
<polygon fill="white" stroke="transparent" points="-4,4 -4,-169.8 536,-169.8 536,4 -4,4"/>
<text text-anchor="middle" x="266" y="-8.2" font-family="sans-serif" font-size="14.00">dependencies</text>
<g id="clust1" class="cluster">
<title>cluster_ActualizacionEmpleadoModule</title>
<polygon fill="none" stroke="black" stroke-dasharray="1,5" points="8,-32.8 8,-157.8 524,-157.8 524,-32.8 8,-32.8"/>
</g>
<g id="clust3" class="cluster">
<title>cluster_ActualizacionEmpleadoModule_imports</title>
<polygon fill="none" stroke="black" points="16,-40.8 16,-92.8 516,-92.8 516,-40.8 16,-40.8"/>
</g>
<!-- ActualizacionEmpleadoRoutingModule -->
<g id="node1" class="node">
<title>ActualizacionEmpleadoRoutingModule</title>
<polygon fill="#8dd3c7" stroke="black" points="507.67,-84.8 504.67,-88.8 483.67,-88.8 480.67,-84.8 268.33,-84.8 268.33,-48.8 507.67,-48.8 507.67,-84.8"/>
<text text-anchor="middle" x="388" y="-62.6" font-family="Times,serif" font-size="14.00">ActualizacionEmpleadoRoutingModule</text>
</g>
<!-- ActualizacionEmpleadoModule -->
<g id="node4" class="node">
<title>ActualizacionEmpleadoModule</title>
<polygon fill="#8dd3c7" stroke="black" points="292.05,-149.8 289.05,-153.8 268.05,-153.8 265.05,-149.8 97.95,-149.8 97.95,-113.8 292.05,-113.8 292.05,-149.8"/>
<text text-anchor="middle" x="195" y="-127.6" font-family="Times,serif" font-size="14.00">ActualizacionEmpleadoModule</text>
</g>
<!-- ActualizacionEmpleadoRoutingModule&#45;&gt;ActualizacionEmpleadoModule -->
<g id="edge1" class="edge">
<title>ActualizacionEmpleadoRoutingModule&#45;&gt;ActualizacionEmpleadoModule</title>
<path fill="none" stroke="black" d="M280.22,-84.91C280.22,-84.91 280.22,-103.79 280.22,-103.79"/>
<polygon fill="black" stroke="black" points="276.72,-103.79 280.22,-113.79 283.72,-103.79 276.72,-103.79"/>
</g>
<!-- PrimeNgModule -->
<g id="node2" class="node">
<title>PrimeNgModule</title>
<polygon fill="#8dd3c7" stroke="black" points="250.1,-84.8 247.1,-88.8 226.1,-88.8 223.1,-84.8 139.9,-84.8 139.9,-48.8 250.1,-48.8 250.1,-84.8"/>
<text text-anchor="middle" x="195" y="-62.6" font-family="Times,serif" font-size="14.00">PrimeNgModule</text>
</g>
<!-- PrimeNgModule&#45;&gt;ActualizacionEmpleadoModule -->
<g id="edge2" class="edge">
<title>PrimeNgModule&#45;&gt;ActualizacionEmpleadoModule</title>
<path fill="none" stroke="black" d="M195,-84.91C195,-84.91 195,-103.79 195,-103.79"/>
<polygon fill="black" stroke="black" points="191.5,-103.79 195,-113.79 198.5,-103.79 191.5,-103.79"/>
</g>
<!-- SharedModule -->
<g id="node3" class="node">
<title>SharedModule</title>
<polygon fill="#8dd3c7" stroke="black" points="122.43,-84.8 119.43,-88.8 98.43,-88.8 95.43,-84.8 23.57,-84.8 23.57,-48.8 122.43,-48.8 122.43,-84.8"/>
<text text-anchor="middle" x="73" y="-62.6" font-family="Times,serif" font-size="14.00">SharedModule</text>
</g>
<!-- SharedModule&#45;&gt;ActualizacionEmpleadoModule -->
<g id="edge3" class="edge">
<title>SharedModule&#45;&gt;ActualizacionEmpleadoModule</title>
<path fill="none" stroke="black" d="M110.09,-84.91C110.09,-84.91 110.09,-103.79 110.09,-103.79"/>
<polygon fill="black" stroke="black" points="106.59,-103.79 110.09,-113.79 113.59,-103.79 106.59,-103.79"/>
</g>
</g>
</svg>
