<?xml version="1.0" encoding="UTF-8" standalone="no"?>
<!DOCTYPE svg PUBLIC "-//W3C//DTD SVG 1.1//EN"
 "http://www.w3.org/Graphics/SVG/1.1/DTD/svg11.dtd">
<!-- Generated by graphviz version 5.0.0 (20220707.1540)
 -->
<!-- Title: dependencies Pages: 1 -->
<svg width="532pt" height="174pt"
 viewBox="0.00 0.00 532.00 173.80" xmlns="http://www.w3.org/2000/svg" xmlns:xlink="http://www.w3.org/1999/xlink">
<g id="graph0" class="graph" transform="scale(1 1) rotate(0) translate(4 169.8)">
<title>dependencies</title>
<polygon fill="white" stroke="transparent" points="-4,4 -4,-169.8 528,-169.8 528,4 -4,4"/>
<text text-anchor="middle" x="262" y="-8.2" font-family="sans-serif" font-size="14.00">dependencies</text>
<g id="clust1" class="cluster">
<title>cluster_ClasificadorModule</title>
<polygon fill="none" stroke="black" stroke-dasharray="1,5" points="8,-32.8 8,-157.8 516,-157.8 516,-32.8 8,-32.8"/>
</g>
<g id="clust2" class="cluster">
<title>cluster_ClasificadorModule_declarations</title>
<polygon fill="none" stroke="black" points="342,-40.8 342,-92.8 508,-92.8 508,-40.8 342,-40.8"/>
</g>
<g id="clust4" class="cluster">
<title>cluster_ClasificadorModule_imports</title>
<polygon fill="none" stroke="black" points="16,-40.8 16,-92.8 334,-92.8 334,-40.8 16,-40.8"/>
</g>
<!-- ClasificadorComponent -->
<g id="node1" class="node">
<title>ClasificadorComponent</title>
<polygon fill="#ffffb3" stroke="black" points="499.75,-84.8 350.25,-84.8 350.25,-48.8 499.75,-48.8 499.75,-84.8"/>
<text text-anchor="middle" x="425" y="-62.6" font-family="Times,serif" font-size="14.00">ClasificadorComponent</text>
</g>
<!-- ClasificadorModule -->
<g id="node2" class="node">
<title>ClasificadorModule</title>
<polygon fill="#8dd3c7" stroke="black" points="302.97,-149.8 299.97,-153.8 278.97,-153.8 275.97,-149.8 175.03,-149.8 175.03,-113.8 302.97,-113.8 302.97,-149.8"/>
<text text-anchor="middle" x="239" y="-127.6" font-family="Times,serif" font-size="14.00">ClasificadorModule</text>
</g>
<!-- ClasificadorComponent&#45;&gt;ClasificadorModule -->
<g id="edge1" class="edge">
<title>ClasificadorComponent&#45;&gt;ClasificadorModule</title>
<path fill="none" stroke="black" d="M425,-84.91C425,-104.14 425,-131.8 425,-131.8 425,-131.8 313.01,-131.8 313.01,-131.8"/>
<polygon fill="black" stroke="black" points="313.01,-128.3 303.01,-131.8 313.01,-135.3 313.01,-128.3"/>
</g>
<!-- ClasificadorRoutingModule -->
<g id="node3" class="node">
<title>ClasificadorRoutingModule</title>
<polygon fill="#8dd3c7" stroke="black" points="325.59,-84.8 322.59,-88.8 301.59,-88.8 298.59,-84.8 152.41,-84.8 152.41,-48.8 325.59,-48.8 325.59,-84.8"/>
<text text-anchor="middle" x="239" y="-62.6" font-family="Times,serif" font-size="14.00">ClasificadorRoutingModule</text>
</g>
<!-- ClasificadorRoutingModule&#45;&gt;ClasificadorModule -->
<g id="edge2" class="edge">
<title>ClasificadorRoutingModule&#45;&gt;ClasificadorModule</title>
<path fill="none" stroke="black" d="M239,-84.91C239,-84.91 239,-103.79 239,-103.79"/>
<polygon fill="black" stroke="black" points="235.5,-103.79 239,-113.79 242.5,-103.79 235.5,-103.79"/>
</g>
<!-- PrimeNgModule -->
<g id="node4" class="node">
<title>PrimeNgModule</title>
<polygon fill="#8dd3c7" stroke="black" points="134.1,-84.8 131.1,-88.8 110.1,-88.8 107.1,-84.8 23.9,-84.8 23.9,-48.8 134.1,-48.8 134.1,-84.8"/>
<text text-anchor="middle" x="79" y="-62.6" font-family="Times,serif" font-size="14.00">PrimeNgModule</text>
</g>
<!-- PrimeNgModule&#45;&gt;ClasificadorModule -->
<g id="edge3" class="edge">
<title>PrimeNgModule&#45;&gt;ClasificadorModule</title>
<path fill="none" stroke="black" d="M79,-84.91C79,-104.14 79,-131.8 79,-131.8 79,-131.8 164.84,-131.8 164.84,-131.8"/>
<polygon fill="black" stroke="black" points="164.84,-135.3 174.84,-131.8 164.84,-128.3 164.84,-135.3"/>
</g>
</g>
</svg>
