<?xml version="1.0" encoding="UTF-8" standalone="no"?>
<!DOCTYPE svg PUBLIC "-//W3C//DTD SVG 1.1//EN"
 "http://www.w3.org/Graphics/SVG/1.1/DTD/svg11.dtd">
<!-- Generated by graphviz version 5.0.0 (20220707.1540)
 -->
<!-- Title: dependencies Pages: 1 -->
<svg width="2682pt" height="174pt"
 viewBox="0.00 0.00 2682.00 173.80" xmlns="http://www.w3.org/2000/svg" xmlns:xlink="http://www.w3.org/1999/xlink">
<g id="graph0" class="graph" transform="scale(1 1) rotate(0) translate(4 169.8)">
<title>dependencies</title>
<polygon fill="white" stroke="transparent" points="-4,4 -4,-169.8 2678,-169.8 2678,4 -4,4"/>
<text text-anchor="middle" x="1337" y="-8.2" font-family="sans-serif" font-size="14.00">dependencies</text>
<g id="clust1" class="cluster">
<title>cluster_EmpleadosModule</title>
<polygon fill="none" stroke="black" stroke-dasharray="1,5" points="8,-32.8 8,-157.8 2666,-157.8 2666,-32.8 8,-32.8"/>
</g>
<g id="clust14" class="cluster">
<title>cluster_EmpleadosModule_imports</title>
<polygon fill="none" stroke="black" points="2232,-40.8 2232,-92.8 2658,-92.8 2658,-40.8 2232,-40.8"/>
</g>
<g id="clust2" class="cluster">
<title>cluster_EmpleadosModule_declarations</title>
<polygon fill="none" stroke="black" points="16,-40.8 16,-92.8 2224,-92.8 2224,-40.8 16,-40.8"/>
</g>
<!-- EjemploComponent -->
<g id="node1" class="node">
<title>EjemploComponent</title>
<polygon fill="#ffffb3" stroke="black" points="2216.27,-84.8 2087.73,-84.8 2087.73,-48.8 2216.27,-48.8 2216.27,-84.8"/>
<text text-anchor="middle" x="2152" y="-62.6" font-family="Times,serif" font-size="14.00">EjemploComponent</text>
</g>
<!-- EmpleadosModule -->
<g id="node12" class="node">
<title>EmpleadosModule</title>
<polygon fill="#8dd3c7" stroke="black" points="1501.76,-149.8 1498.76,-153.8 1477.76,-153.8 1474.76,-149.8 1380.24,-149.8 1380.24,-113.8 1501.76,-113.8 1501.76,-149.8"/>
<text text-anchor="middle" x="1441" y="-127.6" font-family="Times,serif" font-size="14.00">EmpleadosModule</text>
</g>
<!-- EjemploComponent&#45;&gt;EmpleadosModule -->
<g id="edge1" class="edge">
<title>EjemploComponent&#45;&gt;EmpleadosModule</title>
<path fill="none" stroke="black" d="M2152,-85.02C2152,-103.63 2152,-129.8 2152,-129.8 2152,-129.8 1511.93,-129.8 1511.93,-129.8"/>
<polygon fill="black" stroke="black" points="1511.93,-126.3 1501.93,-129.8 1511.93,-133.3 1511.93,-126.3"/>
</g>
<!-- EmpleadoActualizarInicioComponent -->
<g id="node2" class="node">
<title>EmpleadoActualizarInicioComponent</title>
<polygon fill="#ffffb3" stroke="black" points="2069.54,-84.8 1840.46,-84.8 1840.46,-48.8 2069.54,-48.8 2069.54,-84.8"/>
<text text-anchor="middle" x="1955" y="-62.6" font-family="Times,serif" font-size="14.00">EmpleadoActualizarInicioComponent</text>
</g>
<!-- EmpleadoActualizarInicioComponent&#45;&gt;EmpleadosModule -->
<g id="edge2" class="edge">
<title>EmpleadoActualizarInicioComponent&#45;&gt;EmpleadosModule</title>
<path fill="none" stroke="black" d="M1955,-84.83C1955,-101.86 1955,-124.8 1955,-124.8 1955,-124.8 1511.98,-124.8 1511.98,-124.8"/>
<polygon fill="black" stroke="black" points="1511.98,-121.3 1501.98,-124.8 1511.98,-128.3 1511.98,-121.3"/>
</g>
<!-- EmpleadoEstudiosComponent -->
<g id="node3" class="node">
<title>EmpleadoEstudiosComponent</title>
<polygon fill="#ffffb3" stroke="black" points="1822.32,-84.8 1635.68,-84.8 1635.68,-48.8 1822.32,-48.8 1822.32,-84.8"/>
<text text-anchor="middle" x="1729" y="-62.6" font-family="Times,serif" font-size="14.00">EmpleadoEstudiosComponent</text>
</g>
<!-- EmpleadoEstudiosComponent&#45;&gt;EmpleadosModule -->
<g id="edge3" class="edge">
<title>EmpleadoEstudiosComponent&#45;&gt;EmpleadosModule</title>
<path fill="none" stroke="black" d="M1729,-85.04C1729,-100.37 1729,-119.8 1729,-119.8 1729,-119.8 1512.08,-119.8 1512.08,-119.8"/>
<polygon fill="black" stroke="black" points="1512.08,-116.3 1502.08,-119.8 1512.08,-123.3 1512.08,-116.3"/>
</g>
<!-- EmpleadoHijosComponent -->
<g id="node4" class="node">
<title>EmpleadoHijosComponent</title>
<polygon fill="#ffffb3" stroke="black" points="1618.43,-84.8 1449.57,-84.8 1449.57,-48.8 1618.43,-48.8 1618.43,-84.8"/>
<text text-anchor="middle" x="1534" y="-62.6" font-family="Times,serif" font-size="14.00">EmpleadoHijosComponent</text>
</g>
<!-- EmpleadoHijosComponent&#45;&gt;EmpleadosModule -->
<g id="edge4" class="edge">
<title>EmpleadoHijosComponent&#45;&gt;EmpleadosModule</title>
<path fill="none" stroke="black" d="M1475.83,-84.91C1475.83,-84.91 1475.83,-103.79 1475.83,-103.79"/>
<polygon fill="black" stroke="black" points="1472.33,-103.79 1475.83,-113.79 1479.33,-103.79 1472.33,-103.79"/>
</g>
<!-- EmpleadoListaComponent -->
<g id="node5" class="node">
<title>EmpleadoListaComponent</title>
<polygon fill="#ffffb3" stroke="black" points="1432.08,-84.8 1265.92,-84.8 1265.92,-48.8 1432.08,-48.8 1432.08,-84.8"/>
<text text-anchor="middle" x="1349" y="-62.6" font-family="Times,serif" font-size="14.00">EmpleadoListaComponent</text>
</g>
<!-- EmpleadoListaComponent&#45;&gt;EmpleadosModule -->
<g id="edge5" class="edge">
<title>EmpleadoListaComponent&#45;&gt;EmpleadosModule</title>
<path fill="none" stroke="black" d="M1406.08,-84.91C1406.08,-84.91 1406.08,-103.79 1406.08,-103.79"/>
<polygon fill="black" stroke="black" points="1402.58,-103.79 1406.08,-113.79 1409.58,-103.79 1402.58,-103.79"/>
</g>
<!-- EmpleadoMascotasComponent -->
<g id="node6" class="node">
<title>EmpleadoMascotasComponent</title>
<polygon fill="#ffffb3" stroke="black" points="1247.47,-84.8 1056.53,-84.8 1056.53,-48.8 1247.47,-48.8 1247.47,-84.8"/>
<text text-anchor="middle" x="1152" y="-62.6" font-family="Times,serif" font-size="14.00">EmpleadoMascotasComponent</text>
</g>
<!-- EmpleadoMascotasComponent&#45;&gt;EmpleadosModule -->
<g id="edge6" class="edge">
<title>EmpleadoMascotasComponent&#45;&gt;EmpleadosModule</title>
<path fill="none" stroke="black" d="M1152,-85.04C1152,-100.37 1152,-119.8 1152,-119.8 1152,-119.8 1370.06,-119.8 1370.06,-119.8"/>
<polygon fill="black" stroke="black" points="1370.06,-123.3 1380.06,-119.8 1370.06,-116.3 1370.06,-123.3"/>
</g>
<!-- EmpleadoNuevoComponent -->
<g id="node7" class="node">
<title>EmpleadoNuevoComponent</title>
<polygon fill="#ffffb3" stroke="black" points="1038.91,-84.8 863.09,-84.8 863.09,-48.8 1038.91,-48.8 1038.91,-84.8"/>
<text text-anchor="middle" x="951" y="-62.6" font-family="Times,serif" font-size="14.00">EmpleadoNuevoComponent</text>
</g>
<!-- EmpleadoNuevoComponent&#45;&gt;EmpleadosModule -->
<g id="edge7" class="edge">
<title>EmpleadoNuevoComponent&#45;&gt;EmpleadosModule</title>
<path fill="none" stroke="black" d="M951,-84.83C951,-101.86 951,-124.8 951,-124.8 951,-124.8 1369.93,-124.8 1369.93,-124.8"/>
<polygon fill="black" stroke="black" points="1369.93,-128.3 1379.93,-124.8 1369.93,-121.3 1369.93,-128.3"/>
</g>
<!-- EmpleadoNuevoCortoComponent -->
<g id="node8" class="node">
<title>EmpleadoNuevoCortoComponent</title>
<polygon fill="#ffffb3" stroke="black" points="845.8,-84.8 638.2,-84.8 638.2,-48.8 845.8,-48.8 845.8,-84.8"/>
<text text-anchor="middle" x="742" y="-62.6" font-family="Times,serif" font-size="14.00">EmpleadoNuevoCortoComponent</text>
</g>
<!-- EmpleadoNuevoCortoComponent&#45;&gt;EmpleadosModule -->
<g id="edge8" class="edge">
<title>EmpleadoNuevoCortoComponent&#45;&gt;EmpleadosModule</title>
<path fill="none" stroke="black" d="M742,-85.02C742,-103.63 742,-129.8 742,-129.8 742,-129.8 1370.19,-129.8 1370.19,-129.8"/>
<polygon fill="black" stroke="black" points="1370.19,-133.3 1380.19,-129.8 1370.19,-126.3 1370.19,-133.3"/>
</g>
<!-- EmpleadoPendienteAplicarComponent -->
<g id="node9" class="node">
<title>EmpleadoPendienteAplicarComponent</title>
<polygon fill="#ffffb3" stroke="black" points="620.78,-84.8 385.22,-84.8 385.22,-48.8 620.78,-48.8 620.78,-84.8"/>
<text text-anchor="middle" x="503" y="-62.6" font-family="Times,serif" font-size="14.00">EmpleadoPendienteAplicarComponent</text>
</g>
<!-- EmpleadoPendienteAplicarComponent&#45;&gt;EmpleadosModule -->
<g id="edge9" class="edge">
<title>EmpleadoPendienteAplicarComponent&#45;&gt;EmpleadosModule</title>
<path fill="none" stroke="black" d="M503,-85.02C503,-105.17 503,-134.8 503,-134.8 503,-134.8 1370.18,-134.8 1370.18,-134.8"/>
<polygon fill="black" stroke="black" points="1370.18,-138.3 1380.18,-134.8 1370.18,-131.3 1370.18,-138.3"/>
</g>
<!-- EmpleadoVehiculoComponent -->
<g id="node10" class="node">
<title>EmpleadoVehiculoComponent</title>
<polygon fill="#ffffb3" stroke="black" points="367.91,-84.8 178.09,-84.8 178.09,-48.8 367.91,-48.8 367.91,-84.8"/>
<text text-anchor="middle" x="273" y="-62.6" font-family="Times,serif" font-size="14.00">EmpleadoVehiculoComponent</text>
</g>
<!-- EmpleadoVehiculoComponent&#45;&gt;EmpleadosModule -->
<g id="edge10" class="edge">
<title>EmpleadoVehiculoComponent&#45;&gt;EmpleadosModule</title>
<path fill="none" stroke="black" d="M273,-84.84C273,-106.46 273,-139.8 273,-139.8 273,-139.8 1369.85,-139.8 1369.85,-139.8"/>
<polygon fill="black" stroke="black" points="1369.85,-143.3 1379.85,-139.8 1369.85,-136.3 1369.85,-143.3"/>
</g>
<!-- MisDatosComponent -->
<g id="node11" class="node">
<title>MisDatosComponent</title>
<polygon fill="#ffffb3" stroke="black" points="159.78,-84.8 24.22,-84.8 24.22,-48.8 159.78,-48.8 159.78,-84.8"/>
<text text-anchor="middle" x="92" y="-62.6" font-family="Times,serif" font-size="14.00">MisDatosComponent</text>
</g>
<!-- MisDatosComponent&#45;&gt;EmpleadosModule -->
<g id="edge11" class="edge">
<title>MisDatosComponent&#45;&gt;EmpleadosModule</title>
<path fill="none" stroke="black" d="M92,-84.89C92,-107.93 92,-144.8 92,-144.8 92,-144.8 1369.97,-144.8 1369.97,-144.8"/>
<polygon fill="black" stroke="black" points="1369.97,-148.3 1379.97,-144.8 1369.97,-141.3 1369.97,-148.3"/>
</g>
<!-- EmpleadosRoutingModule -->
<g id="node13" class="node">
<title>EmpleadosRoutingModule</title>
<polygon fill="#8dd3c7" stroke="black" points="2650.38,-84.8 2647.38,-88.8 2626.38,-88.8 2623.38,-84.8 2483.62,-84.8 2483.62,-48.8 2650.38,-48.8 2650.38,-84.8"/>
<text text-anchor="middle" x="2567" y="-62.6" font-family="Times,serif" font-size="14.00">EmpleadosRoutingModule</text>
</g>
<!-- EmpleadosRoutingModule&#45;&gt;EmpleadosModule -->
<g id="edge12" class="edge">
<title>EmpleadosRoutingModule&#45;&gt;EmpleadosModule</title>
<path fill="none" stroke="black" d="M2567,-84.89C2567,-107.93 2567,-144.8 2567,-144.8 2567,-144.8 1511.94,-144.8 1511.94,-144.8"/>
<polygon fill="black" stroke="black" points="1511.94,-141.3 1501.94,-144.8 1511.94,-148.3 1511.94,-141.3"/>
</g>
<!-- PrimeNgModule -->
<g id="node14" class="node">
<title>PrimeNgModule</title>
<polygon fill="#8dd3c7" stroke="black" points="2466.1,-84.8 2463.1,-88.8 2442.1,-88.8 2439.1,-84.8 2355.9,-84.8 2355.9,-48.8 2466.1,-48.8 2466.1,-84.8"/>
<text text-anchor="middle" x="2411" y="-62.6" font-family="Times,serif" font-size="14.00">PrimeNgModule</text>
</g>
<!-- PrimeNgModule&#45;&gt;EmpleadosModule -->
<g id="edge13" class="edge">
<title>PrimeNgModule&#45;&gt;EmpleadosModule</title>
<path fill="none" stroke="black" d="M2411,-84.84C2411,-106.46 2411,-139.8 2411,-139.8 2411,-139.8 1512.05,-139.8 1512.05,-139.8"/>
<polygon fill="black" stroke="black" points="1512.05,-136.3 1502.05,-139.8 1512.05,-143.3 1512.05,-136.3"/>
</g>
<!-- SharedModule -->
<g id="node15" class="node">
<title>SharedModule</title>
<polygon fill="#8dd3c7" stroke="black" points="2338.43,-84.8 2335.43,-88.8 2314.43,-88.8 2311.43,-84.8 2239.57,-84.8 2239.57,-48.8 2338.43,-48.8 2338.43,-84.8"/>
<text text-anchor="middle" x="2289" y="-62.6" font-family="Times,serif" font-size="14.00">SharedModule</text>
</g>
<!-- SharedModule&#45;&gt;EmpleadosModule -->
<g id="edge14" class="edge">
<title>SharedModule&#45;&gt;EmpleadosModule</title>
<path fill="none" stroke="black" d="M2289,-85.02C2289,-105.17 2289,-134.8 2289,-134.8 2289,-134.8 1511.99,-134.8 1511.99,-134.8"/>
<polygon fill="black" stroke="black" points="1511.99,-131.3 1501.99,-134.8 1511.99,-138.3 1511.99,-131.3"/>
</g>
</g>
</svg>
