<?xml version="1.0" encoding="UTF-8" standalone="no"?>
<!DOCTYPE svg PUBLIC "-//W3C//DTD SVG 1.1//EN"
 "http://www.w3.org/Graphics/SVG/1.1/DTD/svg11.dtd">
<!-- Generated by graphviz version 5.0.0 (20220707.1540)
 -->
<!-- Title: dependencies Pages: 1 -->
<svg width="755pt" height="247pt"
 viewBox="0.00 0.00 755.00 246.80" xmlns="http://www.w3.org/2000/svg" xmlns:xlink="http://www.w3.org/1999/xlink">
<g id="graph0" class="graph" transform="scale(1 1) rotate(0) translate(4 242.8)">
<title>dependencies</title>
<polygon fill="white" stroke="transparent" points="-4,4 -4,-242.8 751,-242.8 751,4 -4,4"/>
<text text-anchor="middle" x="373.5" y="-8.2" font-family="sans-serif" font-size="14.00">dependencies</text>
<g id="clust1" class="cluster">
<title>cluster_AppModule</title>
<polygon fill="none" stroke="black" stroke-dasharray="1,5" points="8,-32.8 8,-230.8 739,-230.8 739,-32.8 8,-32.8"/>
</g>
<g id="clust5" class="cluster">
<title>cluster_AppModule_imports</title>
<polygon fill="none" stroke="black" points="470,-40.8 470,-92.8 731,-92.8 731,-40.8 470,-40.8"/>
</g>
<g id="clust7" class="cluster">
<title>cluster_AppModule_bootstrap</title>
<polygon fill="none" stroke="black" points="339,-170.8 339,-222.8 463,-222.8 463,-170.8 339,-170.8"/>
</g>
<g id="clust2" class="cluster">
<title>cluster_AppModule_declarations</title>
<polygon fill="none" stroke="black" points="202,-40.8 202,-92.8 462,-92.8 462,-40.8 202,-40.8"/>
</g>
<g id="clust8" class="cluster">
<title>cluster_AppModule_providers</title>
<polygon fill="none" stroke="black" points="16,-40.8 16,-92.8 194,-92.8 194,-40.8 16,-40.8"/>
</g>
<!-- AppComponent -->
<g id="node1" class="node">
<title>AppComponent</title>
<polygon fill="#ffffb3" stroke="black" points="453.94,-84.8 348.06,-84.8 348.06,-48.8 453.94,-48.8 453.94,-84.8"/>
<text text-anchor="middle" x="401" y="-62.6" font-family="Times,serif" font-size="14.00">AppComponent</text>
</g>
<!-- AppModule -->
<g id="node3" class="node">
<title>AppModule</title>
<polygon fill="#8dd3c7" stroke="black" points="442.66,-149.8 439.66,-153.8 418.66,-153.8 415.66,-149.8 359.34,-149.8 359.34,-113.8 442.66,-113.8 442.66,-149.8"/>
<text text-anchor="middle" x="401" y="-127.6" font-family="Times,serif" font-size="14.00">AppModule</text>
</g>
<!-- AppComponent&#45;&gt;AppModule -->
<g id="edge1" class="edge">
<title>AppComponent&#45;&gt;AppModule</title>
<path fill="none" stroke="black" d="M401,-84.91C401,-84.91 401,-103.79 401,-103.79"/>
<polygon fill="black" stroke="black" points="397.5,-103.79 401,-113.79 404.5,-103.79 397.5,-103.79"/>
</g>
<!-- LayoutComponent -->
<g id="node2" class="node">
<title>LayoutComponent</title>
<polygon fill="#ffffb3" stroke="black" points="330.49,-84.8 209.51,-84.8 209.51,-48.8 330.49,-48.8 330.49,-84.8"/>
<text text-anchor="middle" x="270" y="-62.6" font-family="Times,serif" font-size="14.00">LayoutComponent</text>
</g>
<!-- LayoutComponent&#45;&gt;AppModule -->
<g id="edge2" class="edge">
<title>LayoutComponent&#45;&gt;AppModule</title>
<path fill="none" stroke="black" d="M270,-84.82C270,-102.17 270,-125.8 270,-125.8 270,-125.8 349.19,-125.8 349.19,-125.8"/>
<polygon fill="black" stroke="black" points="349.19,-129.3 359.19,-125.8 349.19,-122.3 349.19,-129.3"/>
</g>
<!-- AppComponent  -->
<g id="node6" class="node">
<title>AppComponent </title>
<polygon fill="#80b1d3" stroke="black" points="455.44,-214.8 346.56,-214.8 346.56,-178.8 455.44,-178.8 455.44,-214.8"/>
<text text-anchor="middle" x="401" y="-192.6" font-family="Times,serif" font-size="14.00">AppComponent </text>
</g>
<!-- AppModule&#45;&gt;AppComponent  -->
<g id="edge5" class="edge">
<title>AppModule&#45;&gt;AppComponent </title>
<path fill="none" stroke="black" stroke-dasharray="1,5" d="M401,-149.91C401,-149.91 401,-168.79 401,-168.79"/>
<polygon fill="black" stroke="black" points="397.5,-168.79 401,-178.79 404.5,-168.79 397.5,-168.79"/>
</g>
<!-- AppRoutingModule -->
<g id="node4" class="node">
<title>AppRoutingModule</title>
<polygon fill="#8dd3c7" stroke="black" points="723.28,-84.8 720.28,-88.8 699.28,-88.8 696.28,-84.8 594.72,-84.8 594.72,-48.8 723.28,-48.8 723.28,-84.8"/>
<text text-anchor="middle" x="659" y="-62.6" font-family="Times,serif" font-size="14.00">AppRoutingModule</text>
</g>
<!-- AppRoutingModule&#45;&gt;AppModule -->
<g id="edge3" class="edge">
<title>AppRoutingModule&#45;&gt;AppModule</title>
<path fill="none" stroke="black" d="M659,-85.08C659,-106.12 659,-137.8 659,-137.8 659,-137.8 452.74,-137.8 452.74,-137.8"/>
<polygon fill="black" stroke="black" points="452.74,-134.3 442.74,-137.8 452.74,-141.3 452.74,-134.3"/>
</g>
<!-- SharedModule -->
<g id="node5" class="node">
<title>SharedModule</title>
<polygon fill="#8dd3c7" stroke="black" points="576.43,-84.8 573.43,-88.8 552.43,-88.8 549.43,-84.8 477.57,-84.8 477.57,-48.8 576.43,-48.8 576.43,-84.8"/>
<text text-anchor="middle" x="527" y="-62.6" font-family="Times,serif" font-size="14.00">SharedModule</text>
</g>
<!-- SharedModule&#45;&gt;AppModule -->
<g id="edge4" class="edge">
<title>SharedModule&#45;&gt;AppModule</title>
<path fill="none" stroke="black" d="M527,-84.82C527,-102.17 527,-125.8 527,-125.8 527,-125.8 452.96,-125.8 452.96,-125.8"/>
<polygon fill="black" stroke="black" points="452.96,-122.3 442.96,-125.8 452.96,-129.3 452.96,-122.3"/>
</g>
<!-- HeaderInterceptor -->
<g id="node7" class="node">
<title>HeaderInterceptor</title>
<ellipse fill="#fdb462" stroke="black" cx="105" cy="-66.8" rx="81.04" ry="18"/>
<text text-anchor="middle" x="105" y="-62.6" font-family="Times,serif" font-size="14.00">HeaderInterceptor</text>
</g>
<!-- HeaderInterceptor&#45;&gt;AppModule -->
<g id="edge6" class="edge">
<title>HeaderInterceptor&#45;&gt;AppModule</title>
<path fill="none" stroke="black" d="M105,-85.08C105,-106.12 105,-137.8 105,-137.8 105,-137.8 349.22,-137.8 349.22,-137.8"/>
<polygon fill="black" stroke="black" points="349.22,-141.3 359.22,-137.8 349.22,-134.3 349.22,-141.3"/>
</g>
</g>
</svg>
