<?xml version="1.0" encoding="UTF-8" standalone="no"?>
<!DOCTYPE svg PUBLIC "-//W3C//DTD SVG 1.1//EN"
 "http://www.w3.org/Graphics/SVG/1.1/DTD/svg11.dtd">
<!-- Generated by graphviz version 5.0.0 (20220707.1540)
 -->
<!-- Title: dependencies Pages: 1 -->
<svg width="1010pt" height="174pt"
 viewBox="0.00 0.00 1010.00 173.80" xmlns="http://www.w3.org/2000/svg" xmlns:xlink="http://www.w3.org/1999/xlink">
<g id="graph0" class="graph" transform="scale(1 1) rotate(0) translate(4 169.8)">
<title>dependencies</title>
<polygon fill="white" stroke="transparent" points="-4,4 -4,-169.8 1006,-169.8 1006,4 -4,4"/>
<text text-anchor="middle" x="501" y="-8.2" font-family="sans-serif" font-size="14.00">dependencies</text>
<g id="clust1" class="cluster">
<title>cluster_HomeModule</title>
<polygon fill="none" stroke="black" stroke-dasharray="1,5" points="8,-32.8 8,-157.8 994,-157.8 994,-32.8 8,-32.8"/>
</g>
<g id="clust2" class="cluster">
<title>cluster_HomeModule_declarations</title>
<polygon fill="none" stroke="black" points="178,-40.8 178,-92.8 986,-92.8 986,-40.8 178,-40.8"/>
</g>
<g id="clust8" class="cluster">
<title>cluster_HomeModule_imports</title>
<polygon fill="none" stroke="black" points="16,-40.8 16,-92.8 170,-92.8 170,-40.8 16,-40.8"/>
</g>
<!-- ChartRechargeComponent -->
<g id="node1" class="node">
<title>ChartRechargeComponent</title>
<polygon fill="#ffffb3" stroke="black" points="977.79,-84.8 812.21,-84.8 812.21,-48.8 977.79,-48.8 977.79,-84.8"/>
<text text-anchor="middle" x="895" y="-62.6" font-family="Times,serif" font-size="14.00">ChartRechargeComponent</text>
</g>
<!-- HomeModule -->
<g id="node6" class="node">
<title>HomeModule</title>
<polygon fill="#8dd3c7" stroke="black" points="516.77,-149.8 513.77,-153.8 492.77,-153.8 489.77,-149.8 423.23,-149.8 423.23,-113.8 516.77,-113.8 516.77,-149.8"/>
<text text-anchor="middle" x="470" y="-127.6" font-family="Times,serif" font-size="14.00">HomeModule</text>
</g>
<!-- ChartRechargeComponent&#45;&gt;HomeModule -->
<g id="edge1" class="edge">
<title>ChartRechargeComponent&#45;&gt;HomeModule</title>
<path fill="none" stroke="black" d="M895,-85.08C895,-106.12 895,-137.8 895,-137.8 895,-137.8 527.11,-137.8 527.11,-137.8"/>
<polygon fill="black" stroke="black" points="527.11,-134.3 517.11,-137.8 527.11,-141.3 527.11,-134.3"/>
</g>
<!-- ChartWhitdrawComponent -->
<g id="node2" class="node">
<title>ChartWhitdrawComponent</title>
<polygon fill="#ffffb3" stroke="black" points="794.41,-84.8 625.59,-84.8 625.59,-48.8 794.41,-48.8 794.41,-84.8"/>
<text text-anchor="middle" x="710" y="-62.6" font-family="Times,serif" font-size="14.00">ChartWhitdrawComponent</text>
</g>
<!-- ChartWhitdrawComponent&#45;&gt;HomeModule -->
<g id="edge2" class="edge">
<title>ChartWhitdrawComponent&#45;&gt;HomeModule</title>
<path fill="none" stroke="black" d="M710,-84.82C710,-102.17 710,-125.8 710,-125.8 710,-125.8 526.84,-125.8 526.84,-125.8"/>
<polygon fill="black" stroke="black" points="526.84,-122.3 516.84,-125.8 526.84,-129.3 526.84,-122.3"/>
</g>
<!-- FavoritesComponent -->
<g id="node3" class="node">
<title>FavoritesComponent</title>
<polygon fill="#ffffb3" stroke="black" points="607.94,-84.8 474.06,-84.8 474.06,-48.8 607.94,-48.8 607.94,-84.8"/>
<text text-anchor="middle" x="541" y="-62.6" font-family="Times,serif" font-size="14.00">FavoritesComponent</text>
</g>
<!-- FavoritesComponent&#45;&gt;HomeModule -->
<g id="edge3" class="edge">
<title>FavoritesComponent&#45;&gt;HomeModule</title>
<path fill="none" stroke="black" d="M495.58,-84.91C495.58,-84.91 495.58,-103.79 495.58,-103.79"/>
<polygon fill="black" stroke="black" points="492.08,-103.79 495.58,-113.79 499.08,-103.79 492.08,-103.79"/>
</g>
<!-- HomeComponent -->
<g id="node4" class="node">
<title>HomeComponent</title>
<polygon fill="#ffffb3" stroke="black" points="456.55,-84.8 341.45,-84.8 341.45,-48.8 456.55,-48.8 456.55,-84.8"/>
<text text-anchor="middle" x="399" y="-62.6" font-family="Times,serif" font-size="14.00">HomeComponent</text>
</g>
<!-- HomeComponent&#45;&gt;HomeModule -->
<g id="edge4" class="edge">
<title>HomeComponent&#45;&gt;HomeModule</title>
<path fill="none" stroke="black" d="M439.94,-84.91C439.94,-84.91 439.94,-103.79 439.94,-103.79"/>
<polygon fill="black" stroke="black" points="436.44,-103.79 439.94,-113.79 443.44,-103.79 436.44,-103.79"/>
</g>
<!-- IndicatorsComponent -->
<g id="node5" class="node">
<title>IndicatorsComponent</title>
<polygon fill="#ffffb3" stroke="black" points="323.81,-84.8 186.19,-84.8 186.19,-48.8 323.81,-48.8 323.81,-84.8"/>
<text text-anchor="middle" x="255" y="-62.6" font-family="Times,serif" font-size="14.00">IndicatorsComponent</text>
</g>
<!-- IndicatorsComponent&#45;&gt;HomeModule -->
<g id="edge5" class="edge">
<title>IndicatorsComponent&#45;&gt;HomeModule</title>
<path fill="none" stroke="black" d="M255,-84.82C255,-102.17 255,-125.8 255,-125.8 255,-125.8 413.08,-125.8 413.08,-125.8"/>
<polygon fill="black" stroke="black" points="413.08,-129.3 423.08,-125.8 413.08,-122.3 413.08,-129.3"/>
</g>
<!-- HomeRoutingModule -->
<g id="node7" class="node">
<title>HomeRoutingModule</title>
<polygon fill="#8dd3c7" stroke="black" points="162.38,-84.8 159.38,-88.8 138.38,-88.8 135.38,-84.8 23.62,-84.8 23.62,-48.8 162.38,-48.8 162.38,-84.8"/>
<text text-anchor="middle" x="93" y="-62.6" font-family="Times,serif" font-size="14.00">HomeRoutingModule</text>
</g>
<!-- HomeRoutingModule&#45;&gt;HomeModule -->
<g id="edge6" class="edge">
<title>HomeRoutingModule&#45;&gt;HomeModule</title>
<path fill="none" stroke="black" d="M93,-85.08C93,-106.12 93,-137.8 93,-137.8 93,-137.8 413.01,-137.8 413.01,-137.8"/>
<polygon fill="black" stroke="black" points="413.01,-141.3 423.01,-137.8 413.01,-134.3 413.01,-141.3"/>
</g>
</g>
</svg>
