<?xml version="1.0" encoding="UTF-8" standalone="no"?>
<!DOCTYPE svg PUBLIC "-//W3C//DTD SVG 1.1//EN"
 "http://www.w3.org/Graphics/SVG/1.1/DTD/svg11.dtd">
<!-- Generated by graphviz version 5.0.0 (20220707.1540)
 -->
<!-- Title: dependencies Pages: 1 -->
<svg width="918pt" height="174pt"
 viewBox="0.00 0.00 918.00 173.80" xmlns="http://www.w3.org/2000/svg" xmlns:xlink="http://www.w3.org/1999/xlink">
<g id="graph0" class="graph" transform="scale(1 1) rotate(0) translate(4 169.8)">
<title>dependencies</title>
<polygon fill="white" stroke="transparent" points="-4,4 -4,-169.8 914,-169.8 914,4 -4,4"/>
<text text-anchor="middle" x="455" y="-8.2" font-family="sans-serif" font-size="14.00">dependencies</text>
<g id="clust1" class="cluster">
<title>cluster_ActivosModule</title>
<polygon fill="none" stroke="black" stroke-dasharray="1,5" points="8,-32.8 8,-157.8 902,-157.8 902,-32.8 8,-32.8"/>
</g>
<g id="clust6" class="cluster">
<title>cluster_ActivosModule_imports</title>
<polygon fill="none" stroke="black" points="486,-40.8 486,-92.8 894,-92.8 894,-40.8 486,-40.8"/>
</g>
<g id="clust2" class="cluster">
<title>cluster_ActivosModule_declarations</title>
<polygon fill="none" stroke="black" points="16,-40.8 16,-92.8 478,-92.8 478,-40.8 16,-40.8"/>
</g>
<!-- ActivoListaComponent -->
<g id="node1" class="node">
<title>ActivoListaComponent</title>
<polygon fill="#ffffb3" stroke="black" points="469.93,-84.8 322.07,-84.8 322.07,-48.8 469.93,-48.8 469.93,-84.8"/>
<text text-anchor="middle" x="396" y="-62.6" font-family="Times,serif" font-size="14.00">ActivoListaComponent</text>
</g>
<!-- ActivosModule -->
<g id="node4" class="node">
<title>ActivosModule</title>
<polygon fill="#8dd3c7" stroke="black" points="520.6,-149.8 517.6,-153.8 496.6,-153.8 493.6,-149.8 417.4,-149.8 417.4,-113.8 520.6,-113.8 520.6,-149.8"/>
<text text-anchor="middle" x="469" y="-127.6" font-family="Times,serif" font-size="14.00">ActivosModule</text>
</g>
<!-- ActivoListaComponent&#45;&gt;ActivosModule -->
<g id="edge1" class="edge">
<title>ActivoListaComponent&#45;&gt;ActivosModule</title>
<path fill="none" stroke="black" d="M443.58,-84.91C443.58,-84.91 443.58,-103.79 443.58,-103.79"/>
<polygon fill="black" stroke="black" points="440.08,-103.79 443.58,-113.79 447.08,-103.79 440.08,-103.79"/>
</g>
<!-- ContainerComponent -->
<g id="node2" class="node">
<title>ContainerComponent</title>
<polygon fill="#ffffb3" stroke="black" points="304.04,-84.8 167.96,-84.8 167.96,-48.8 304.04,-48.8 304.04,-84.8"/>
<text text-anchor="middle" x="236" y="-62.6" font-family="Times,serif" font-size="14.00">ContainerComponent</text>
</g>
<!-- ContainerComponent&#45;&gt;ActivosModule -->
<g id="edge2" class="edge">
<title>ContainerComponent&#45;&gt;ActivosModule</title>
<path fill="none" stroke="black" d="M236,-84.82C236,-102.17 236,-125.8 236,-125.8 236,-125.8 407.29,-125.8 407.29,-125.8"/>
<polygon fill="black" stroke="black" points="407.29,-129.3 417.29,-125.8 407.29,-122.3 407.29,-129.3"/>
</g>
<!-- ReporteComponent -->
<g id="node3" class="node">
<title>ReporteComponent</title>
<polygon fill="#ffffb3" stroke="black" points="149.65,-84.8 24.35,-84.8 24.35,-48.8 149.65,-48.8 149.65,-84.8"/>
<text text-anchor="middle" x="87" y="-62.6" font-family="Times,serif" font-size="14.00">ReporteComponent</text>
</g>
<!-- ReporteComponent&#45;&gt;ActivosModule -->
<g id="edge3" class="edge">
<title>ReporteComponent&#45;&gt;ActivosModule</title>
<path fill="none" stroke="black" d="M87,-85.08C87,-106.12 87,-137.8 87,-137.8 87,-137.8 407.08,-137.8 407.08,-137.8"/>
<polygon fill="black" stroke="black" points="407.08,-141.3 417.08,-137.8 407.08,-134.3 407.08,-141.3"/>
</g>
<!-- ActivosRoutingModule -->
<g id="node5" class="node">
<title>ActivosRoutingModule</title>
<polygon fill="#8dd3c7" stroke="black" points="886.22,-84.8 883.22,-88.8 862.22,-88.8 859.22,-84.8 737.78,-84.8 737.78,-48.8 886.22,-48.8 886.22,-84.8"/>
<text text-anchor="middle" x="812" y="-62.6" font-family="Times,serif" font-size="14.00">ActivosRoutingModule</text>
</g>
<!-- ActivosRoutingModule&#45;&gt;ActivosModule -->
<g id="edge4" class="edge">
<title>ActivosRoutingModule&#45;&gt;ActivosModule</title>
<path fill="none" stroke="black" d="M812,-85.08C812,-106.12 812,-137.8 812,-137.8 812,-137.8 530.72,-137.8 530.72,-137.8"/>
<polygon fill="black" stroke="black" points="530.72,-134.3 520.72,-137.8 530.72,-141.3 530.72,-134.3"/>
</g>
<!-- PrimeNgModule -->
<g id="node6" class="node">
<title>PrimeNgModule</title>
<polygon fill="#8dd3c7" stroke="black" points="720.1,-84.8 717.1,-88.8 696.1,-88.8 693.1,-84.8 609.9,-84.8 609.9,-48.8 720.1,-48.8 720.1,-84.8"/>
<text text-anchor="middle" x="665" y="-62.6" font-family="Times,serif" font-size="14.00">PrimeNgModule</text>
</g>
<!-- PrimeNgModule&#45;&gt;ActivosModule -->
<g id="edge5" class="edge">
<title>PrimeNgModule&#45;&gt;ActivosModule</title>
<path fill="none" stroke="black" d="M665,-84.82C665,-102.17 665,-125.8 665,-125.8 665,-125.8 530.75,-125.8 530.75,-125.8"/>
<polygon fill="black" stroke="black" points="530.75,-122.3 520.75,-125.8 530.75,-129.3 530.75,-122.3"/>
</g>
<!-- SharedModule -->
<g id="node7" class="node">
<title>SharedModule</title>
<polygon fill="#8dd3c7" stroke="black" points="592.43,-84.8 589.43,-88.8 568.43,-88.8 565.43,-84.8 493.57,-84.8 493.57,-48.8 592.43,-48.8 592.43,-84.8"/>
<text text-anchor="middle" x="543" y="-62.6" font-family="Times,serif" font-size="14.00">SharedModule</text>
</g>
<!-- SharedModule&#45;&gt;ActivosModule -->
<g id="edge6" class="edge">
<title>SharedModule&#45;&gt;ActivosModule</title>
<path fill="none" stroke="black" d="M507.17,-84.91C507.17,-84.91 507.17,-103.79 507.17,-103.79"/>
<polygon fill="black" stroke="black" points="503.67,-103.79 507.17,-113.79 510.67,-103.79 503.67,-103.79"/>
</g>
</g>
</svg>
