<?xml version="1.0" encoding="UTF-8" standalone="no"?>
<!DOCTYPE svg PUBLIC "-//W3C//DTD SVG 1.1//EN"
 "http://www.w3.org/Graphics/SVG/1.1/DTD/svg11.dtd">
<!-- Generated by graphviz version 5.0.0 (20220707.1540)
 -->
<!-- Title: dependencies Pages: 1 -->
<svg width="512pt" height="174pt"
 viewBox="0.00 0.00 512.00 173.80" xmlns="http://www.w3.org/2000/svg" xmlns:xlink="http://www.w3.org/1999/xlink">
<g id="graph0" class="graph" transform="scale(1 1) rotate(0) translate(4 169.8)">
<title>dependencies</title>
<polygon fill="white" stroke="transparent" points="-4,4 -4,-169.8 508,-169.8 508,4 -4,4"/>
<text text-anchor="middle" x="252" y="-8.2" font-family="sans-serif" font-size="14.00">dependencies</text>
<g id="clust1" class="cluster">
<title>cluster_CambioContrasenaModule</title>
<polygon fill="none" stroke="black" stroke-dasharray="1,5" points="8,-32.8 8,-157.8 496,-157.8 496,-32.8 8,-32.8"/>
</g>
<g id="clust3" class="cluster">
<title>cluster_CambioContrasenaModule_imports</title>
<polygon fill="none" stroke="black" points="16,-40.8 16,-92.8 488,-92.8 488,-40.8 16,-40.8"/>
</g>
<!-- CambioContrasenaRoutingModule -->
<g id="node1" class="node">
<title>CambioContrasenaRoutingModule</title>
<polygon fill="#8dd3c7" stroke="black" points="479.98,-84.8 476.98,-88.8 455.98,-88.8 452.98,-84.8 268.02,-84.8 268.02,-48.8 479.98,-48.8 479.98,-84.8"/>
<text text-anchor="middle" x="374" y="-62.6" font-family="Times,serif" font-size="14.00">CambioContrasenaRoutingModule</text>
</g>
<!-- CambioContrasenaModule -->
<g id="node4" class="node">
<title>CambioContrasenaModule</title>
<polygon fill="#8dd3c7" stroke="black" points="278.36,-149.8 275.36,-153.8 254.36,-153.8 251.36,-149.8 111.64,-149.8 111.64,-113.8 278.36,-113.8 278.36,-149.8"/>
<text text-anchor="middle" x="195" y="-127.6" font-family="Times,serif" font-size="14.00">CambioContrasenaModule</text>
</g>
<!-- CambioContrasenaRoutingModule&#45;&gt;CambioContrasenaModule -->
<g id="edge1" class="edge">
<title>CambioContrasenaRoutingModule&#45;&gt;CambioContrasenaModule</title>
<path fill="none" stroke="black" d="M273.22,-84.91C273.22,-84.91 273.22,-103.79 273.22,-103.79"/>
<polygon fill="black" stroke="black" points="269.72,-103.79 273.22,-113.79 276.72,-103.79 269.72,-103.79"/>
</g>
<!-- PrimeNgModule -->
<g id="node2" class="node">
<title>PrimeNgModule</title>
<polygon fill="#8dd3c7" stroke="black" points="250.1,-84.8 247.1,-88.8 226.1,-88.8 223.1,-84.8 139.9,-84.8 139.9,-48.8 250.1,-48.8 250.1,-84.8"/>
<text text-anchor="middle" x="195" y="-62.6" font-family="Times,serif" font-size="14.00">PrimeNgModule</text>
</g>
<!-- PrimeNgModule&#45;&gt;CambioContrasenaModule -->
<g id="edge2" class="edge">
<title>PrimeNgModule&#45;&gt;CambioContrasenaModule</title>
<path fill="none" stroke="black" d="M195,-84.91C195,-84.91 195,-103.79 195,-103.79"/>
<polygon fill="black" stroke="black" points="191.5,-103.79 195,-113.79 198.5,-103.79 191.5,-103.79"/>
</g>
<!-- SharedModule -->
<g id="node3" class="node">
<title>SharedModule</title>
<polygon fill="#8dd3c7" stroke="black" points="122.43,-84.8 119.43,-88.8 98.43,-88.8 95.43,-84.8 23.57,-84.8 23.57,-48.8 122.43,-48.8 122.43,-84.8"/>
<text text-anchor="middle" x="73" y="-62.6" font-family="Times,serif" font-size="14.00">SharedModule</text>
</g>
<!-- SharedModule&#45;&gt;CambioContrasenaModule -->
<g id="edge3" class="edge">
<title>SharedModule&#45;&gt;CambioContrasenaModule</title>
<path fill="none" stroke="black" d="M116.89,-84.91C116.89,-84.91 116.89,-103.79 116.89,-103.79"/>
<polygon fill="black" stroke="black" points="113.39,-103.79 116.89,-113.79 120.39,-103.79 113.39,-103.79"/>
</g>
</g>
</svg>
