<?xml version="1.0" encoding="UTF-8" standalone="no"?>
<!DOCTYPE svg PUBLIC "-//W3C//DTD SVG 1.1//EN"
 "http://www.w3.org/Graphics/SVG/1.1/DTD/svg11.dtd">
<!-- Generated by graphviz version 5.0.0 (20220707.1540)
 -->
<!-- Title: dependencies Pages: 1 -->
<svg width="919pt" height="174pt"
 viewBox="0.00 0.00 919.00 173.80" xmlns="http://www.w3.org/2000/svg" xmlns:xlink="http://www.w3.org/1999/xlink">
<g id="graph0" class="graph" transform="scale(1 1) rotate(0) translate(4 169.8)">
<title>dependencies</title>
<polygon fill="white" stroke="transparent" points="-4,4 -4,-169.8 915,-169.8 915,4 -4,4"/>
<text text-anchor="middle" x="455.5" y="-8.2" font-family="sans-serif" font-size="14.00">dependencies</text>
<g id="clust1" class="cluster">
<title>cluster_PerfilesModule</title>
<polygon fill="none" stroke="black" stroke-dasharray="1,5" points="8,-32.8 8,-157.8 903,-157.8 903,-32.8 8,-32.8"/>
</g>
<g id="clust2" class="cluster">
<title>cluster_PerfilesModule_declarations</title>
<polygon fill="none" stroke="black" points="432,-40.8 432,-92.8 895,-92.8 895,-40.8 432,-40.8"/>
</g>
<g id="clust6" class="cluster">
<title>cluster_PerfilesModule_imports</title>
<polygon fill="none" stroke="black" points="16,-40.8 16,-92.8 424,-92.8 424,-40.8 16,-40.8"/>
</g>
<!-- MiembrosComponent -->
<g id="node1" class="node">
<title>MiembrosComponent</title>
<polygon fill="#ffffb3" stroke="black" points="887.38,-84.8 748.62,-84.8 748.62,-48.8 887.38,-48.8 887.38,-84.8"/>
<text text-anchor="middle" x="818" y="-62.6" font-family="Times,serif" font-size="14.00">MiembrosComponent</text>
</g>
<!-- PerfilesModule -->
<g id="node4" class="node">
<title>PerfilesModule</title>
<polygon fill="#8dd3c7" stroke="black" points="473.32,-149.8 470.32,-153.8 449.32,-153.8 446.32,-149.8 370.68,-149.8 370.68,-113.8 473.32,-113.8 473.32,-149.8"/>
<text text-anchor="middle" x="422" y="-127.6" font-family="Times,serif" font-size="14.00">PerfilesModule</text>
</g>
<!-- MiembrosComponent&#45;&gt;PerfilesModule -->
<g id="edge1" class="edge">
<title>MiembrosComponent&#45;&gt;PerfilesModule</title>
<path fill="none" stroke="black" d="M818,-85.08C818,-106.12 818,-137.8 818,-137.8 818,-137.8 483.36,-137.8 483.36,-137.8"/>
<polygon fill="black" stroke="black" points="483.36,-134.3 473.36,-137.8 483.36,-141.3 483.36,-134.3"/>
</g>
<!-- NavegacionComponent -->
<g id="node2" class="node">
<title>NavegacionComponent</title>
<polygon fill="#ffffb3" stroke="black" points="730.19,-84.8 581.81,-84.8 581.81,-48.8 730.19,-48.8 730.19,-84.8"/>
<text text-anchor="middle" x="656" y="-62.6" font-family="Times,serif" font-size="14.00">NavegacionComponent</text>
</g>
<!-- NavegacionComponent&#45;&gt;PerfilesModule -->
<g id="edge2" class="edge">
<title>NavegacionComponent&#45;&gt;PerfilesModule</title>
<path fill="none" stroke="black" d="M656,-84.82C656,-102.17 656,-125.8 656,-125.8 656,-125.8 483.35,-125.8 483.35,-125.8"/>
<polygon fill="black" stroke="black" points="483.35,-122.3 473.35,-125.8 483.35,-129.3 483.35,-122.3"/>
</g>
<!-- PerfilesComponent -->
<g id="node3" class="node">
<title>PerfilesComponent</title>
<polygon fill="#ffffb3" stroke="black" points="564.1,-84.8 439.9,-84.8 439.9,-48.8 564.1,-48.8 564.1,-84.8"/>
<text text-anchor="middle" x="502" y="-62.6" font-family="Times,serif" font-size="14.00">PerfilesComponent</text>
</g>
<!-- PerfilesComponent&#45;&gt;PerfilesModule -->
<g id="edge3" class="edge">
<title>PerfilesComponent&#45;&gt;PerfilesModule</title>
<path fill="none" stroke="black" d="M456.56,-84.91C456.56,-84.91 456.56,-103.79 456.56,-103.79"/>
<polygon fill="black" stroke="black" points="453.06,-103.79 456.56,-113.79 460.06,-103.79 453.06,-103.79"/>
</g>
<!-- PerfilesRoutingModule -->
<g id="node5" class="node">
<title>PerfilesRoutingModule</title>
<polygon fill="#8dd3c7" stroke="black" points="415.94,-84.8 412.94,-88.8 391.94,-88.8 388.94,-84.8 268.06,-84.8 268.06,-48.8 415.94,-48.8 415.94,-84.8"/>
<text text-anchor="middle" x="342" y="-62.6" font-family="Times,serif" font-size="14.00">PerfilesRoutingModule</text>
</g>
<!-- PerfilesRoutingModule&#45;&gt;PerfilesModule -->
<g id="edge4" class="edge">
<title>PerfilesRoutingModule&#45;&gt;PerfilesModule</title>
<path fill="none" stroke="black" d="M393.28,-84.91C393.28,-84.91 393.28,-103.79 393.28,-103.79"/>
<polygon fill="black" stroke="black" points="389.78,-103.79 393.28,-113.79 396.78,-103.79 389.78,-103.79"/>
</g>
<!-- PrimeNgModule -->
<g id="node6" class="node">
<title>PrimeNgModule</title>
<polygon fill="#8dd3c7" stroke="black" points="250.1,-84.8 247.1,-88.8 226.1,-88.8 223.1,-84.8 139.9,-84.8 139.9,-48.8 250.1,-48.8 250.1,-84.8"/>
<text text-anchor="middle" x="195" y="-62.6" font-family="Times,serif" font-size="14.00">PrimeNgModule</text>
</g>
<!-- PrimeNgModule&#45;&gt;PerfilesModule -->
<g id="edge5" class="edge">
<title>PrimeNgModule&#45;&gt;PerfilesModule</title>
<path fill="none" stroke="black" d="M195,-84.82C195,-102.17 195,-125.8 195,-125.8 195,-125.8 360.77,-125.8 360.77,-125.8"/>
<polygon fill="black" stroke="black" points="360.77,-129.3 370.77,-125.8 360.77,-122.3 360.77,-129.3"/>
</g>
<!-- SharedModule -->
<g id="node7" class="node">
<title>SharedModule</title>
<polygon fill="#8dd3c7" stroke="black" points="122.43,-84.8 119.43,-88.8 98.43,-88.8 95.43,-84.8 23.57,-84.8 23.57,-48.8 122.43,-48.8 122.43,-84.8"/>
<text text-anchor="middle" x="73" y="-62.6" font-family="Times,serif" font-size="14.00">SharedModule</text>
</g>
<!-- SharedModule&#45;&gt;PerfilesModule -->
<g id="edge6" class="edge">
<title>SharedModule&#45;&gt;PerfilesModule</title>
<path fill="none" stroke="black" d="M73,-85.08C73,-106.12 73,-137.8 73,-137.8 73,-137.8 360.5,-137.8 360.5,-137.8"/>
<polygon fill="black" stroke="black" points="360.5,-141.3 370.5,-137.8 360.5,-134.3 360.5,-141.3"/>
</g>
</g>
</svg>
