<?xml version="1.0" encoding="UTF-8" standalone="no"?>
<!DOCTYPE svg PUBLIC "-//W3C//DTD SVG 1.1//EN"
 "http://www.w3.org/Graphics/SVG/1.1/DTD/svg11.dtd">
<!-- Generated by graphviz version 5.0.0 (20220707.1540)
 -->
<!-- Title: dependencies Pages: 1 -->
<svg width="930pt" height="174pt"
 viewBox="0.00 0.00 930.00 173.80" xmlns="http://www.w3.org/2000/svg" xmlns:xlink="http://www.w3.org/1999/xlink">
<g id="graph0" class="graph" transform="scale(1 1) rotate(0) translate(4 169.8)">
<title>dependencies</title>
<polygon fill="white" stroke="transparent" points="-4,4 -4,-169.8 926,-169.8 926,4 -4,4"/>
<text text-anchor="middle" x="461" y="-8.2" font-family="sans-serif" font-size="14.00">dependencies</text>
<g id="clust1" class="cluster">
<title>cluster_VacacionesModule</title>
<polygon fill="none" stroke="black" stroke-dasharray="1,5" points="8,-32.8 8,-157.8 914,-157.8 914,-32.8 8,-32.8"/>
</g>
<g id="clust6" class="cluster">
<title>cluster_VacacionesModule_imports</title>
<polygon fill="none" stroke="black" points="476,-40.8 476,-92.8 906,-92.8 906,-40.8 476,-40.8"/>
</g>
<g id="clust2" class="cluster">
<title>cluster_VacacionesModule_declarations</title>
<polygon fill="none" stroke="black" points="16,-40.8 16,-92.8 468,-92.8 468,-40.8 16,-40.8"/>
</g>
<!-- AgregarComponent -->
<g id="node1" class="node">
<title>AgregarComponent</title>
<polygon fill="#ffffb3" stroke="black" points="459.69,-84.8 332.31,-84.8 332.31,-48.8 459.69,-48.8 459.69,-84.8"/>
<text text-anchor="middle" x="396" y="-62.6" font-family="Times,serif" font-size="14.00">AgregarComponent</text>
</g>
<!-- VacacionesModule -->
<g id="node4" class="node">
<title>VacacionesModule</title>
<polygon fill="#8dd3c7" stroke="black" points="544.07,-149.8 541.07,-153.8 520.07,-153.8 517.07,-149.8 419.93,-149.8 419.93,-113.8 544.07,-113.8 544.07,-149.8"/>
<text text-anchor="middle" x="482" y="-127.6" font-family="Times,serif" font-size="14.00">VacacionesModule</text>
</g>
<!-- AgregarComponent&#45;&gt;VacacionesModule -->
<g id="edge1" class="edge">
<title>AgregarComponent&#45;&gt;VacacionesModule</title>
<path fill="none" stroke="black" d="M439.78,-84.91C439.78,-84.91 439.78,-103.79 439.78,-103.79"/>
<polygon fill="black" stroke="black" points="436.28,-103.79 439.78,-113.79 443.28,-103.79 436.28,-103.79"/>
</g>
<!-- GestionComponent -->
<g id="node2" class="node">
<title>GestionComponent</title>
<polygon fill="#ffffb3" stroke="black" points="314.38,-84.8 189.62,-84.8 189.62,-48.8 314.38,-48.8 314.38,-84.8"/>
<text text-anchor="middle" x="252" y="-62.6" font-family="Times,serif" font-size="14.00">GestionComponent</text>
</g>
<!-- GestionComponent&#45;&gt;VacacionesModule -->
<g id="edge2" class="edge">
<title>GestionComponent&#45;&gt;VacacionesModule</title>
<path fill="none" stroke="black" d="M252,-84.82C252,-102.17 252,-125.8 252,-125.8 252,-125.8 409.76,-125.8 409.76,-125.8"/>
<polygon fill="black" stroke="black" points="409.76,-129.3 419.76,-125.8 409.76,-122.3 409.76,-129.3"/>
</g>
<!-- GestionJefeComponent -->
<g id="node3" class="node">
<title>GestionJefeComponent</title>
<polygon fill="#ffffb3" stroke="black" points="171.92,-84.8 24.08,-84.8 24.08,-48.8 171.92,-48.8 171.92,-84.8"/>
<text text-anchor="middle" x="98" y="-62.6" font-family="Times,serif" font-size="14.00">GestionJefeComponent</text>
</g>
<!-- GestionJefeComponent&#45;&gt;VacacionesModule -->
<g id="edge3" class="edge">
<title>GestionJefeComponent&#45;&gt;VacacionesModule</title>
<path fill="none" stroke="black" d="M98,-85.08C98,-106.12 98,-137.8 98,-137.8 98,-137.8 409.88,-137.8 409.88,-137.8"/>
<polygon fill="black" stroke="black" points="409.88,-141.3 419.88,-137.8 409.88,-134.3 409.88,-141.3"/>
</g>
<!-- PrimeNgModule -->
<g id="node5" class="node">
<title>PrimeNgModule</title>
<polygon fill="#8dd3c7" stroke="black" points="898.1,-84.8 895.1,-88.8 874.1,-88.8 871.1,-84.8 787.9,-84.8 787.9,-48.8 898.1,-48.8 898.1,-84.8"/>
<text text-anchor="middle" x="843" y="-62.6" font-family="Times,serif" font-size="14.00">PrimeNgModule</text>
</g>
<!-- PrimeNgModule&#45;&gt;VacacionesModule -->
<g id="edge4" class="edge">
<title>PrimeNgModule&#45;&gt;VacacionesModule</title>
<path fill="none" stroke="black" d="M843,-85.08C843,-106.12 843,-137.8 843,-137.8 843,-137.8 554.06,-137.8 554.06,-137.8"/>
<polygon fill="black" stroke="black" points="554.06,-134.3 544.06,-137.8 554.06,-141.3 554.06,-134.3"/>
</g>
<!-- SharedModule -->
<g id="node6" class="node">
<title>SharedModule</title>
<polygon fill="#8dd3c7" stroke="black" points="770.43,-84.8 767.43,-88.8 746.43,-88.8 743.43,-84.8 671.57,-84.8 671.57,-48.8 770.43,-48.8 770.43,-84.8"/>
<text text-anchor="middle" x="721" y="-62.6" font-family="Times,serif" font-size="14.00">SharedModule</text>
</g>
<!-- SharedModule&#45;&gt;VacacionesModule -->
<g id="edge5" class="edge">
<title>SharedModule&#45;&gt;VacacionesModule</title>
<path fill="none" stroke="black" d="M721,-84.82C721,-102.17 721,-125.8 721,-125.8 721,-125.8 554.17,-125.8 554.17,-125.8"/>
<polygon fill="black" stroke="black" points="554.17,-122.3 544.17,-125.8 554.17,-129.3 554.17,-122.3"/>
</g>
<!-- VacacionesRoutingModule -->
<g id="node7" class="node">
<title>VacacionesRoutingModule</title>
<polygon fill="#8dd3c7" stroke="black" points="653.69,-84.8 650.69,-88.8 629.69,-88.8 626.69,-84.8 484.31,-84.8 484.31,-48.8 653.69,-48.8 653.69,-84.8"/>
<text text-anchor="middle" x="569" y="-62.6" font-family="Times,serif" font-size="14.00">VacacionesRoutingModule</text>
</g>
<!-- VacacionesRoutingModule&#45;&gt;VacacionesModule -->
<g id="edge6" class="edge">
<title>VacacionesRoutingModule&#45;&gt;VacacionesModule</title>
<path fill="none" stroke="black" d="M514.22,-84.91C514.22,-84.91 514.22,-103.79 514.22,-103.79"/>
<polygon fill="black" stroke="black" points="510.72,-103.79 514.22,-113.79 517.72,-103.79 510.72,-103.79"/>
</g>
</g>
</svg>
