<?xml version="1.0" encoding="UTF-8" standalone="no"?>
<!DOCTYPE svg PUBLIC "-//W3C//DTD SVG 1.1//EN"
 "http://www.w3.org/Graphics/SVG/1.1/DTD/svg11.dtd">
<!-- Generated by graphviz version 5.0.0 (20220707.1540)
 -->
<!-- Title: dependencies Pages: 1 -->
<svg width="1195pt" height="174pt"
 viewBox="0.00 0.00 1195.00 173.80" xmlns="http://www.w3.org/2000/svg" xmlns:xlink="http://www.w3.org/1999/xlink">
<g id="graph0" class="graph" transform="scale(1 1) rotate(0) translate(4 169.8)">
<title>dependencies</title>
<polygon fill="white" stroke="transparent" points="-4,4 -4,-169.8 1191,-169.8 1191,4 -4,4"/>
<text text-anchor="middle" x="593.5" y="-8.2" font-family="sans-serif" font-size="14.00">dependencies</text>
<g id="clust1" class="cluster">
<title>cluster_ProductosModule</title>
<polygon fill="none" stroke="black" stroke-dasharray="1,5" points="8,-32.8 8,-157.8 1179,-157.8 1179,-32.8 8,-32.8"/>
</g>
<g id="clust2" class="cluster">
<title>cluster_ProductosModule_declarations</title>
<polygon fill="none" stroke="black" points="445,-40.8 445,-92.8 1171,-92.8 1171,-40.8 445,-40.8"/>
</g>
<g id="clust7" class="cluster">
<title>cluster_ProductosModule_imports</title>
<polygon fill="none" stroke="black" points="16,-40.8 16,-92.8 437,-92.8 437,-40.8 16,-40.8"/>
</g>
<!-- CargInventarioComponent -->
<g id="node1" class="node">
<title>CargInventarioComponent</title>
<polygon fill="#ffffb3" stroke="black" points="1163.08,-84.8 996.92,-84.8 996.92,-48.8 1163.08,-48.8 1163.08,-84.8"/>
<text text-anchor="middle" x="1080" y="-62.6" font-family="Times,serif" font-size="14.00">CargInventarioComponent</text>
</g>
<!-- ProductosModule -->
<g id="node5" class="node">
<title>ProductosModule</title>
<polygon fill="#8dd3c7" stroke="black" points="595.55,-149.8 592.55,-153.8 571.55,-153.8 568.55,-149.8 480.45,-149.8 480.45,-113.8 595.55,-113.8 595.55,-149.8"/>
<text text-anchor="middle" x="538" y="-127.6" font-family="Times,serif" font-size="14.00">ProductosModule</text>
</g>
<!-- CargInventarioComponent&#45;&gt;ProductosModule -->
<g id="edge1" class="edge">
<title>CargInventarioComponent&#45;&gt;ProductosModule</title>
<path fill="none" stroke="black" d="M1080,-85.09C1080,-107.01 1080,-140.8 1080,-140.8 1080,-140.8 605.75,-140.8 605.75,-140.8"/>
<polygon fill="black" stroke="black" points="605.75,-137.3 595.75,-140.8 605.75,-144.3 605.75,-137.3"/>
</g>
<!-- CrearProductosComponent -->
<g id="node2" class="node">
<title>CrearProductosComponent</title>
<polygon fill="#ffffb3" stroke="black" points="979.42,-84.8 810.58,-84.8 810.58,-48.8 979.42,-48.8 979.42,-84.8"/>
<text text-anchor="middle" x="895" y="-62.6" font-family="Times,serif" font-size="14.00">CrearProductosComponent</text>
</g>
<!-- CrearProductosComponent&#45;&gt;ProductosModule -->
<g id="edge2" class="edge">
<title>CrearProductosComponent&#45;&gt;ProductosModule</title>
<path fill="none" stroke="black" d="M895,-84.91C895,-104.14 895,-131.8 895,-131.8 895,-131.8 605.75,-131.8 605.75,-131.8"/>
<polygon fill="black" stroke="black" points="605.76,-128.3 595.75,-131.8 605.75,-135.3 605.76,-128.3"/>
</g>
<!-- HojaDeVidaComponent -->
<g id="node3" class="node">
<title>HojaDeVidaComponent</title>
<polygon fill="#ffffb3" stroke="black" points="793.08,-84.8 640.92,-84.8 640.92,-48.8 793.08,-48.8 793.08,-84.8"/>
<text text-anchor="middle" x="717" y="-62.6" font-family="Times,serif" font-size="14.00">HojaDeVidaComponent</text>
</g>
<!-- HojaDeVidaComponent&#45;&gt;ProductosModule -->
<g id="edge3" class="edge">
<title>HojaDeVidaComponent&#45;&gt;ProductosModule</title>
<path fill="none" stroke="black" d="M717,-84.83C717,-101.2 717,-122.8 717,-122.8 717,-122.8 605.62,-122.8 605.62,-122.8"/>
<polygon fill="black" stroke="black" points="605.62,-119.3 595.62,-122.8 605.62,-126.3 605.62,-119.3"/>
</g>
<!-- ListarProductosComponent -->
<g id="node4" class="node">
<title>ListarProductosComponent</title>
<polygon fill="#ffffb3" stroke="black" points="622.99,-84.8 453.01,-84.8 453.01,-48.8 622.99,-48.8 622.99,-84.8"/>
<text text-anchor="middle" x="538" y="-62.6" font-family="Times,serif" font-size="14.00">ListarProductosComponent</text>
</g>
<!-- ListarProductosComponent&#45;&gt;ProductosModule -->
<g id="edge4" class="edge">
<title>ListarProductosComponent&#45;&gt;ProductosModule</title>
<path fill="none" stroke="black" d="M538,-84.91C538,-84.91 538,-103.79 538,-103.79"/>
<polygon fill="black" stroke="black" points="534.5,-103.79 538,-113.79 541.5,-103.79 534.5,-103.79"/>
</g>
<!-- PrimeNgModule -->
<g id="node6" class="node">
<title>PrimeNgModule</title>
<polygon fill="#8dd3c7" stroke="black" points="429.1,-84.8 426.1,-88.8 405.1,-88.8 402.1,-84.8 318.9,-84.8 318.9,-48.8 429.1,-48.8 429.1,-84.8"/>
<text text-anchor="middle" x="374" y="-62.6" font-family="Times,serif" font-size="14.00">PrimeNgModule</text>
</g>
<!-- PrimeNgModule&#45;&gt;ProductosModule -->
<g id="edge5" class="edge">
<title>PrimeNgModule&#45;&gt;ProductosModule</title>
<path fill="none" stroke="black" d="M374,-84.83C374,-101.2 374,-122.8 374,-122.8 374,-122.8 470.18,-122.8 470.18,-122.8"/>
<polygon fill="black" stroke="black" points="470.18,-126.3 480.18,-122.8 470.18,-119.3 470.18,-126.3"/>
</g>
<!-- ProductosRoutingModule -->
<g id="node7" class="node">
<title>ProductosRoutingModule</title>
<polygon fill="#8dd3c7" stroke="black" points="301.17,-84.8 298.17,-88.8 277.17,-88.8 274.17,-84.8 140.83,-84.8 140.83,-48.8 301.17,-48.8 301.17,-84.8"/>
<text text-anchor="middle" x="221" y="-62.6" font-family="Times,serif" font-size="14.00">ProductosRoutingModule</text>
</g>
<!-- ProductosRoutingModule&#45;&gt;ProductosModule -->
<g id="edge6" class="edge">
<title>ProductosRoutingModule&#45;&gt;ProductosModule</title>
<path fill="none" stroke="black" d="M221,-84.91C221,-104.14 221,-131.8 221,-131.8 221,-131.8 470.23,-131.8 470.23,-131.8"/>
<polygon fill="black" stroke="black" points="470.23,-135.3 480.23,-131.8 470.23,-128.3 470.23,-135.3"/>
</g>
<!-- SharedModule -->
<g id="node8" class="node">
<title>SharedModule</title>
<polygon fill="#8dd3c7" stroke="black" points="122.43,-84.8 119.43,-88.8 98.43,-88.8 95.43,-84.8 23.57,-84.8 23.57,-48.8 122.43,-48.8 122.43,-84.8"/>
<text text-anchor="middle" x="73" y="-62.6" font-family="Times,serif" font-size="14.00">SharedModule</text>
</g>
<!-- SharedModule&#45;&gt;ProductosModule -->
<g id="edge7" class="edge">
<title>SharedModule&#45;&gt;ProductosModule</title>
<path fill="none" stroke="black" d="M73,-85.09C73,-107.01 73,-140.8 73,-140.8 73,-140.8 470.05,-140.8 470.05,-140.8"/>
<polygon fill="black" stroke="black" points="470.05,-144.3 480.05,-140.8 470.05,-137.3 470.05,-144.3"/>
</g>
</g>
</svg>
